<svg width="94" height="64" viewBox="0 0 94 64" fill="none" xmlns="http://www.w3.org/2000/svg">
<path d="M42.0847 9.72684C42.8843 8.62934 43.7917 8.72341 44.6325 8.81552C48.5286 9.24277 51.9955 10.7381 55.0529 13.1742C55.7799 13.7543 56.411 14.4559 57.1244 15.0556C57.4909 15.3653 57.9201 15.6259 58.3591 15.8199C60.6893 16.8508 63.0274 17.8582 65.3713 18.8557C65.7182 19.0027 66.1082 19.0517 66.6197 18.9929C66.2434 18.5931 65.8907 18.1658 65.485 17.7974C62.9745 15.5162 60.1778 13.6465 57.193 12.0375C54.2219 10.4363 51.1352 9.14674 47.8544 8.35105C46.8216 8.10019 45.7574 7.98064 44.7069 7.79838C44.4541 7.7533 44.1562 7.7631 43.9603 7.62983C43.6859 7.44169 43.486 7.14184 43.2547 6.88902C43.5134 6.67148 43.7407 6.33439 44.0367 6.25403C46.0259 5.72096 47.9524 6.25403 49.8613 6.73027C52.8892 7.48676 55.7172 8.74889 58.4061 10.3207C61.5262 12.1433 64.6364 13.9836 67.7447 15.8278C68.3287 16.1747 68.852 16.6333 69.4556 16.937C69.8574 17.1389 70.3512 17.1605 71.1058 17.329C70.7942 16.5568 70.6413 16.0434 70.3924 15.5828C68.9343 12.8665 66.4492 11.2516 63.8015 10.0424C60.5521 8.55683 57.1832 7.27118 53.7652 6.2364C50.9745 5.39171 48.0347 5.04286 45.1616 4.47451C45.0029 4.44316 44.7795 4.48039 44.6971 4.38828C44.4463 4.10411 44.2503 3.7729 44.0347 3.45933C44.3326 3.2751 44.6305 2.93213 44.9284 2.93409C46.7177 2.94193 48.507 3.03796 50.2964 3.08696C54.4316 3.20063 58.2866 4.451 62.0612 6.00122C65.4693 7.40053 68.7422 9.06246 71.8093 11.1164C72.1484 11.3437 72.5345 11.4985 73.0029 11.7396C72.1993 9.50342 70.4571 8.21778 68.9186 6.76751C67.0293 4.98799 64.7403 3.82581 62.365 2.92625C60.609 2.26187 58.7099 1.90715 56.8441 1.60337C53.7123 1.09186 50.5668 1.42307 47.4291 1.68765C46.7471 1.74448 46.0455 1.58769 45.3517 1.5289C45.3321 1.37603 45.3125 1.22121 45.2929 1.06834C45.828 0.897837 46.3532 0.621502 46.898 0.576426C49.8319 0.341247 52.7853 -0.133031 55.7016 0.027675C61.5536 0.349086 66.7177 2.51273 71.0607 6.58133C72.7736 8.18642 74.2141 9.95614 75.1959 12.0571C75.5585 12.8351 75.9465 13.1017 76.7461 13.0977C78.4571 13.0899 78.9568 13.5563 79.1214 15.2849C79.2841 16.9958 79.3801 18.7126 79.5271 20.4275C79.5604 20.8116 79.6741 21.1879 79.8054 21.8268C80.4953 20.7959 81.0558 19.914 81.6673 19.0693C81.8201 18.8596 82.1337 18.7655 82.3728 18.6186C82.3806 18.8694 82.4571 19.1418 82.3885 19.3692C81.2969 22.9498 78.8608 25.668 76.4874 28.4079C74.5119 30.6911 72.4639 32.9253 69.8887 34.5696C68.7501 35.2967 67.4723 35.8258 66.3963 36.6313C65.3713 37.3996 64.9284 37.4642 63.8407 36.4177C61.3458 34.0189 58.169 32.596 54.7648 31.8905C53.2361 31.575 51.6153 31.3437 50.0984 32.1394C48.7383 32.8528 47.6506 34.9086 48.0269 36.4236C48.1562 36.9449 48.7324 37.5916 49.2341 37.7347C50.2728 38.0345 51.3978 38.1364 52.4874 38.1345C53.8103 38.1325 55.1312 37.8699 56.4541 37.8562C57.438 37.8444 58.4531 37.9346 59.4037 38.1815C60.5952 38.4912 61.048 39.5887 60.8245 40.7763C60.1994 44.0943 57.8064 45.7464 55.0235 47.0262C52.5894 48.1472 50.1749 49.3349 47.6663 50.2619C44.8049 51.3202 41.8476 52.1237 38.9333 53.037C38.8177 53.0723 38.704 53.1134 38.4061 53.2153C38.6903 53.4525 38.8471 53.6818 39.045 53.7288C40.1562 53.9855 41.2733 54.3657 42.3963 54.3873C43.9387 54.4167 45.5183 54.3167 47.0215 53.9914C48.4835 53.6759 49.9318 53.133 51.2724 52.4628C53.4615 51.3692 55.6134 50.1776 57.6771 48.8606C59.2528 47.8552 60.6619 46.5911 62.1553 45.4525C62.6452 45.0801 63.1548 44.7293 63.6761 44.402C63.8074 44.3197 64.0896 44.2942 64.1798 44.3765C64.2836 44.4706 64.3189 44.743 64.2621 44.888C64.1347 45.2114 63.9701 45.5367 63.7525 45.8052C62.2532 47.669 60.4894 49.2232 58.4571 50.5108C55.3664 52.4686 52.2817 54.4481 48.7226 55.4338C47.2822 55.8337 46.3336 56.6548 45.3537 58.0933C46.6452 58.0933 47.7113 58.2423 48.7226 58.0659C51.8348 57.525 54.7138 56.2883 57.3772 54.6284C60.0073 52.986 62.5727 51.2281 65.0813 49.4054C66.0063 48.7332 66.6668 47.7082 67.4958 46.8929C67.974 46.4226 68.507 45.9757 69.093 45.6661C69.3517 45.5289 69.8926 45.6563 70.1376 45.864C70.2885 45.9895 70.1396 46.4971 70.0886 46.8263C70.071 46.94 69.9573 47.0536 69.8613 47.136C66.8941 49.6445 64.6285 52.9429 61.1518 54.8812C59.2371 55.9493 57.3165 57.0135 55.4409 58.1482C53.8613 59.1046 52.315 60.1355 51.5252 62.0483C52.5717 62.2795 53.5595 62.0424 54.4139 61.5916C56.6717 60.4 58.9215 59.1791 61.0734 57.8092C64.0798 55.8944 66.608 53.425 68.8186 50.6225C69.5399 49.7072 70.3591 48.8586 71.1979 48.0492C71.4448 47.8101 71.9152 47.8043 72.2836 47.6906C72.3248 48.0924 72.5482 48.6137 72.3757 48.8743C71.6271 50.0091 70.849 51.1458 69.926 52.1374C67.4879 54.7499 64.95 57.2722 62.4923 59.867C61.9279 60.4647 61.5222 61.2134 61.191 62.0914C61.5066 61.9895 61.8319 61.9071 62.1396 61.7817C65.5026 60.4157 68.4286 58.4049 70.7471 55.6161C71.7133 54.4539 72.46 53.0997 73.2145 51.7788C74.655 49.2545 76.217 46.7734 77.3596 44.1178C78.0063 42.6166 79.0039 41.5171 79.9661 40.3158C81.9299 37.864 83.9348 35.4417 85.8103 32.9233C86.9255 31.426 87.8466 29.7817 88.8206 28.1825C90.1141 26.0581 91.4291 23.9238 91.7505 21.3956C91.9936 19.4809 92.1053 17.5465 92.2562 15.62C92.2954 15.1105 92.2621 14.595 92.2621 13.9365C93.1577 14.4716 93.3361 15.2555 93.4105 15.9865C93.6673 18.5343 93.9083 21.1173 93.0088 23.5848C92.4365 25.1565 91.7133 26.695 90.8824 28.1472C89.826 29.9953 88.7344 31.8572 87.4056 33.5113C85.048 36.4432 82.508 39.23 80.0249 42.062C79.5526 42.6009 79.1293 43.0497 78.9588 43.8552C78.7177 44.9978 78.0847 46.0679 77.5555 47.1379C76.3326 49.6151 75.1998 52.1492 73.7907 54.5186C72.3953 56.8626 70.6785 59.0066 68.2542 60.4314C66.3708 61.5387 64.511 62.7028 62.5551 63.669C61.828 64.0277 60.8579 63.9571 59.9975 63.965C59.4527 63.9689 58.8549 62.7479 58.9941 62.0894C59.045 61.8484 59.1156 61.6132 59.1822 61.3564C57.3654 62.1345 55.6388 62.9145 53.8789 63.6063C53.2596 63.8493 52.5619 63.9297 51.8917 63.9924C50.3258 64.1433 48.9421 62.6264 49.9867 61.0507C50.2611 60.6372 50.4316 60.157 50.5688 59.8728C49.0871 59.9473 47.5193 60.0806 45.9514 60.0884C43.8701 60.0982 43.0254 58.7459 43.8564 56.8449C43.9465 56.6391 44.0622 56.4451 44.2327 56.1139C43.3135 56.059 42.4433 56.0688 41.5947 55.9395C40.6795 55.8003 39.7447 55.6298 38.8941 55.2888C37.922 54.8988 37.1675 54.2148 37.4125 52.9057C36.2993 53.0938 35.2743 53.3035 34.2395 53.4348C32.507 53.6563 30.7746 53.8973 29.0323 54.0051C26.8216 54.1423 24.6031 54.1698 22.3865 54.2227C19.4409 54.2913 16.4953 54.3481 13.5497 54.3853C12.4698 54.3991 11.386 54.3932 10.3101 54.307C8.96564 54.2011 9.02247 53.0468 9.03227 52.1845C9.06755 49.0958 9.27333 46.0091 9.32232 42.9223C9.37328 39.7102 9.31252 36.4961 9.31056 33.282C9.31056 30.1972 9.32428 27.1105 9.3282 24.0257C9.3282 23.8748 9.27137 23.7239 9.24197 23.573C9.14202 23.5456 9.04207 23.5181 8.94212 23.4907C7.52712 27.3496 6.02982 31.181 4.7285 35.0772C3.92301 37.4858 3.19983 39.961 2.82551 42.4637C2.38651 45.3976 2.33359 48.3922 2.19052 51.3653C2.15917 52.0179 2.48842 52.6823 2.59817 53.3506C2.63932 53.6034 2.58837 54.0737 2.47862 54.107C2.21208 54.1874 1.82404 54.16 1.5967 54.0071C1.32624 53.8248 1.06951 53.4936 0.989153 53.1801C0.740255 52.2178 0.456081 51.2398 0.405125 50.258C0.12879 44.9802 1.17338 39.8944 2.86274 34.9341C3.90929 31.8591 5.04403 28.8096 6.25912 25.7994C6.98425 24.0042 7.97397 22.3167 8.77161 20.549C8.98719 20.0708 9.00875 19.473 8.99895 18.9302C8.96564 17.0115 8.87744 15.0928 8.81473 13.1761C8.79317 12.5235 8.68342 11.8709 9.78092 12.257C10.2199 12.4118 10.8216 12.1413 11.3409 12.0238C12.5658 11.7494 13.777 11.2731 15.0097 11.2124C16.215 11.1516 16.8069 10.2501 17.681 9.76016C19.3899 8.80377 20.9558 7.58867 22.6766 6.6558C24.654 5.58182 26.6824 4.55487 28.7873 3.7729C30.7667 3.03796 32.8598 2.59308 34.9274 2.12469C36.85 1.68765 38.8 1.37015 40.7442 1.0409C41.3164 0.942913 41.9142 0.942913 42.4963 0.97231C42.6942 0.982109 42.8804 1.22121 43.0724 1.35644C42.9157 1.53086 42.7844 1.82287 42.5982 1.86207C39.9465 2.42258 37.2596 2.83806 34.6413 3.5142C32.1621 4.1531 29.5928 4.50979 27.3253 5.91107C25.4615 7.06148 23.437 7.9532 21.5007 8.98799C20.5678 9.48578 19.6682 10.0483 18.5335 10.7068C20.2111 10.599 21.6339 10.4539 23.0607 10.4265C24.8324 10.3912 26.606 10.4735 28.3777 10.4657C29.8358 10.4598 31.2939 10.352 32.752 10.3677C34.3277 10.3834 35.9034 10.4755 37.4772 10.5715C37.7456 10.5872 38.0259 10.7518 38.263 10.9086C40.6932 12.5137 43.3586 13.4329 46.2238 13.9561C48.7834 14.4245 51.29 15.1732 53.828 15.7709C54.263 15.8728 54.7314 15.8317 55.2939 15.8631C53.7613 14.2168 52.1249 12.9547 50.0553 12.2727C48.1954 11.6592 46.3767 10.9204 44.5227 10.2913C43.8035 10.0404 43.0372 9.94046 42.0847 9.72684ZM37.7731 51.6867C39.1077 51.2496 40.2327 50.8851 41.3537 50.5108C46.2866 48.8684 51.096 46.9321 55.776 44.6509C57.5732 43.7749 58.4061 42.256 59.1469 40.5882C59.4546 39.8944 59.1822 39.4946 58.4512 39.5456C57.0382 39.6396 55.6232 39.7631 54.2199 39.9512C52.1072 40.2315 50.0122 40.3648 47.9877 39.5318C47.0039 39.1281 46.2238 38.3755 46.0671 37.3506C45.3419 32.6058 48.3503 29.1213 53.2087 29.6171C57.7084 30.0757 61.6888 31.8258 64.9206 35.0987C65.0715 35.2516 65.487 35.377 65.6202 35.2849C67.7682 33.7876 70.0161 32.3981 71.9818 30.6852C73.7319 29.1605 75.2018 27.3045 76.7187 25.5289C77.2733 24.8802 78.071 24.3256 77.9416 23.2241C77.7986 21.9973 77.8338 20.7509 77.7574 19.5162C77.6516 17.8425 77.5124 16.1707 77.3968 14.6127C75.3155 14.5029 73.3988 14.401 71.4115 14.2971C72.0563 15.6494 73.1185 16.9488 71.7917 18.3363C70.4218 19.769 69.1499 18.3893 67.7545 17.9718C67.8544 18.1933 67.9191 18.2972 67.9485 18.4108C68.0896 18.9302 68.4855 19.6161 68.2895 19.9316C68.0602 20.302 67.3233 20.3922 66.7863 20.5216C66.4825 20.596 66.1239 20.5686 65.8182 20.4804C63.3684 19.7807 60.9382 19.0497 58.7902 17.5818C58.267 17.2251 57.3733 16.8449 56.9245 17.0566C55.7643 17.6053 54.608 17.4662 53.4987 17.3074C51.4977 17.0193 49.5477 16.355 47.5428 16.11C45.0793 15.8082 42.7785 15.0144 40.4972 14.1502C39.2626 13.6818 38.1376 12.9214 37.0088 12.3177C38.3708 25.3349 38.4669 38.354 37.7731 51.6867ZM36.2327 51.5671C36.2327 50.4853 36.2562 49.3819 36.2287 48.2825C36.1582 45.5485 36.0112 42.8165 35.9936 40.0826C35.9602 35.0164 36.0347 29.9503 35.9896 24.8841C35.97 22.7087 35.7525 20.5372 35.6447 18.3618C35.5604 16.6705 35.4977 14.9792 35.437 13.2859C35.4095 12.547 35.2645 12.0512 34.3042 12.1394C32.2758 12.3236 30.2395 12.5176 28.2072 12.502C24.0484 12.4706 19.8995 12.5078 15.7721 13.0899C14.1709 13.3153 12.5639 13.4956 11.1156 13.6759C12.068 26.8969 12.0347 39.9395 11.1783 53.1017C19.4958 51.3653 27.8838 52.4941 36.2327 51.5671Z" fill="#342B1E"/>
<path d="M32.7149 36.9686C32.3523 40.6041 31.9623 44.0259 30.3278 47.1734C30.0142 47.777 30.1102 48.6021 29.097 48.5727C28.4268 48.5531 27.7526 48.5903 27.0823 48.6197C26.2788 48.6531 25.4753 48.6903 24.6737 48.753C23.1823 48.8667 21.6928 49.1058 20.2033 49.0979C18.5316 49.0881 16.856 48.8922 15.194 48.6785C15.0157 48.655 14.7511 47.9377 14.8197 47.6006C15.1921 45.7408 15.7271 43.9122 16.0701 42.0484C16.4659 39.8907 16.7148 37.7055 17.0402 35.534C17.1734 34.6442 17.5458 34.6482 18.3552 34.9539C19.0333 35.2106 19.8937 35.0617 20.6619 34.9833C22.7472 34.7736 24.8226 34.4659 26.9079 34.2719C28.3758 34.1347 29.8574 34.068 31.3293 34.0916C31.6703 34.0974 32.1779 34.5364 32.3033 34.8853C32.562 35.6006 32.6129 36.3924 32.7149 36.9686ZM17.6105 42.7461C21.975 42.5874 26.2259 42.4345 30.4258 42.2817C30.7374 40.0161 31.4802 37.7074 31.0784 35.2812C26.8354 35.6869 22.6531 36.0847 18.5316 36.4786C18.22 38.6011 17.9162 40.6668 17.6105 42.7461ZM30.2514 43.3341C25.9045 44.5335 21.5772 43.8025 17.3244 44.0925C16.9461 45.2665 16.5757 46.4208 16.1543 47.73C20.4973 47.434 24.6776 47.1479 28.9441 46.8559C29.344 45.778 29.779 44.608 30.2514 43.3341Z" fill="#342B1E"/>
</svg>
