<svg width="60" height="64" viewBox="0 0 60 64" fill="none" xmlns="http://www.w3.org/2000/svg">
<path d="M25.2247 31.0235C25.4306 29.6747 25.4792 28.5942 25.7684 27.5808C27.1589 22.6921 27.6887 17.7039 27.4782 12.6463C27.381 10.3257 26.9044 8.03518 25.8655 5.9182C24.5861 3.31535 21.7449 2.14465 18.64 2.8156C15.2043 3.55828 13.0688 5.73542 12.6523 9.08789C12.3816 11.2604 12.7125 13.6273 13.3001 15.7628C14.3182 19.4623 15.7272 23.053 17.0112 26.6785C17.1986 27.2083 17.5873 27.6688 17.8927 28.1546C18.7418 29.5081 18.3763 30.7922 16.9164 31.4145C13.2955 32.9531 9.51966 33.9318 5.6096 34.3159C4.32553 34.4408 3.00675 34.2835 1.71111 34.1747C1.38951 34.147 0.834239 33.7999 0.84118 33.6148C0.852748 33.2631 1.11882 32.7171 1.40802 32.613C2.60649 32.1781 3.84429 31.8403 5.0844 31.5418C5.81551 31.366 6.58827 31.3729 7.32632 31.2271C9.71632 30.7528 12.1017 30.2462 14.487 29.7464C14.8133 29.677 15.1302 29.5636 15.5814 29.4318C15.3593 28.8464 15.2482 28.312 14.9775 27.8816C12.8189 24.469 11.8171 20.6214 10.8824 16.7715C10.3896 14.7448 10.0819 12.6463 9.96156 10.564C9.74177 6.77193 12.1341 2.46856 15.7526 0.99014C18.7094 -0.217581 21.5298 -0.416555 24.4473 0.955436C27.2861 2.28809 28.5077 4.79146 29.3221 7.5794C30.2638 10.8 30.1967 14.1247 29.9931 17.4124C29.8011 20.5103 29.2851 23.5875 28.9034 26.7225C29.9699 26.1279 31.1407 25.4014 32.3738 24.8045C36.4111 22.8448 40.4901 20.9708 44.9068 20.0129C47.2066 19.5155 49.5156 19.2864 51.7899 20.3253C54.8254 21.7111 55.5172 25.9775 54.6843 28.1431C54.3581 28.9875 53.9532 29.8459 53.3933 30.5446C52.8311 31.2457 52.0305 31.7523 51.119 32.5274C52.2735 33.0202 53.0555 33.3488 53.8352 33.6866C56.5699 34.8688 57.0396 37.4809 56.0216 39.7182C55.302 41.2961 54.6079 43.0568 52.6922 43.8018C57.2802 46.2126 57.5324 48.2833 53.974 52.0129C54.5339 52.0129 54.9295 52.0245 55.3229 52.0106C56.7619 51.9597 58.1455 52.1633 58.909 53.5445C59.6471 54.8818 59.0548 56.1752 58.3398 57.3135C56.9401 59.5369 55.0082 61.2096 52.5534 62.1767C50.2768 63.0744 47.9308 63.6529 45.439 63.6181C44.1179 63.5996 42.7852 64.0693 41.4757 63.993C38.9608 63.8495 36.462 63.4331 33.9494 63.2086C30.2221 62.8732 27.3833 60.9598 24.8915 58.3384C24.2344 57.6466 23.457 57.0729 22.763 56.4158C21.7889 55.4949 20.7825 55.4579 19.5354 55.9392C15.1973 57.6166 10.6487 58.3778 6.033 58.7641C4.73967 58.8729 3.43709 58.9538 2.14376 58.9099C1.66946 58.8937 1.20674 58.4842 0.73938 58.2528C1.16972 57.9058 1.55841 57.3436 2.03733 57.2533C3.60367 56.9549 5.2024 56.8345 6.78724 56.6333C11.3289 56.0618 15.8174 55.2728 20.1208 53.6116C20.7385 53.3733 21.7357 53.4358 22.2771 53.7898C24.6416 55.3399 27.0154 56.9132 29.1648 58.741C31.0574 60.3513 33.2576 60.8325 35.5366 61.2652C36.5453 61.4572 37.5703 61.6886 38.5883 61.6932C40.2078 61.7001 41.8297 61.559 43.4469 61.4294C44.5019 61.3462 45.5755 61.2675 46.5981 61.0176C48.6572 60.5179 50.8136 60.1685 52.6946 59.2662C54.5478 58.3778 56.1049 56.8762 56.9748 54.5325C55.892 54.5325 54.9758 54.5533 54.0596 54.5278C52.0537 54.4746 50.0986 54.5718 48.2755 55.6106C47.6531 55.9646 46.8433 55.805 46.4824 55.0716C46.0891 54.2733 46.3714 53.6996 47.1904 53.1929C49.1385 51.9852 51.0287 50.6826 52.8958 49.3499C54.2655 48.3736 54.1545 47.4342 52.6437 46.6892C51.0287 45.8933 49.3513 45.4607 47.5444 45.9419C46.7045 46.1663 46.1816 45.6967 45.8971 45.0303C45.6125 44.3686 45.7791 43.7486 46.5356 43.4409C47.6647 42.9804 48.7845 42.4992 49.9251 42.0758C51.6789 41.4234 52.8635 40.2827 53.4326 38.4573C53.7565 37.4208 53.3933 36.7938 52.5257 36.4051C50.5776 35.5328 48.5901 35.4195 46.5981 36.2963C45.2562 36.8886 44.0901 36.6434 43.7593 35.7087C43.4724 34.9035 43.7084 34.3089 44.3909 33.8207C46.0058 32.6639 47.7087 31.5996 49.1801 30.2785C50.2236 29.3415 51.2555 28.1639 51.7413 26.8844C52.5904 24.6448 51.2184 22.6389 48.84 22.7199C46.5842 22.7962 44.2428 23.1479 42.1305 23.9068C38.1903 25.3204 34.3705 27.0811 30.5368 28.777C29.1856 29.3762 27.9548 30.2415 26.6337 30.9194C26.3144 31.086 25.8586 30.9888 25.2247 31.0235Z" fill="#342B1E"/>
</svg>
