<svg width="74" height="128" viewBox="0 0 74 128" fill="none" xmlns="http://www.w3.org/2000/svg">
<g clip-path="url(#clip0)">
<path d="M29.2251 2.86798C27.6148 3.36119 27.4668 4.45118 27.1536 5.45486C26.325 8.11572 26.87 10.8161 26.981 13.4818C27.0846 16.0342 27.4742 18.5841 27.9082 21.1069C28.5864 25.1832 29.2794 29.2596 30.1721 33.2916C31.2399 38.1102 32.5715 42.8721 33.6911 47.6809C34.0291 49.2365 34.2247 50.8197 34.2756 52.4108C34.4285 55.6783 34.4358 58.9508 34.5641 62.2183C34.6134 63.4833 34.8748 64.7386 34.9463 66.0012C34.9949 66.8062 34.9352 67.614 34.7688 68.4031C34.6997 68.7286 34.2114 68.9654 33.913 69.2416C33.7157 68.9086 33.4198 68.5979 33.3409 68.2403C33.1214 67.2934 33.0475 66.3144 32.8231 65.3699C31.2497 58.7288 24.1919 54.068 17.2253 54.4971C15.5847 54.603 14.0436 55.3212 12.9073 56.5094C9.86914 59.5155 7.67929 63.0567 7.01593 67.2515C6.55971 70.1417 5.75824 73.1453 6.94194 76.0848C7.10716 76.4991 7.41544 77.0935 7.73356 77.1452C8.15771 77.2118 8.73722 76.9331 9.10713 76.6273C10.4832 75.488 10.5276 73.7815 10.8925 72.2033C11.4252 69.9148 11.8 67.5523 12.6558 65.3871C13.7482 62.6276 15.8789 60.7436 18.954 60.4378C21.9133 60.1443 24.0711 61.6313 25.7726 63.9692C28.1647 67.2589 29.5457 70.953 30.2806 74.911C31.2201 79.9812 31.05 84.9133 28.6826 89.6727C27.6962 91.6653 26.6333 93.5099 24.8528 94.8785C24.3201 95.2879 23.8121 96.0006 23.2474 96.0499C21.9552 96.1609 21.0058 95.3397 20.1057 94.4248C18.1846 92.4717 16.2981 90.4471 14.1551 88.7529C11.7532 86.8614 8.9567 86.8787 6.20953 88.1463C5.09488 88.6617 4.50058 89.4508 4.68306 90.8589C4.96173 92.9896 6.02458 94.6813 7.51407 96.0105C9.93819 98.1732 12.5621 100.112 15.1046 102.141C15.6791 102.6 16.2513 103.063 16.8505 103.492C18.9565 105.004 21.2277 105.958 23.9009 105.534C25.1339 105.342 26.367 105.199 27.5852 105.014C31.304 104.452 33.5999 102.07 35.3483 98.9648C35.5431 98.6195 35.9426 98.3853 36.2459 98.1017C36.462 98.3924 36.6596 98.6963 36.8378 99.0116C38.3544 102.045 38.749 105.359 39.2274 108.651C39.7946 112.55 40.4111 116.447 40.85 120.363C41.0966 122.54 41.0424 124.75 41.0695 126.947C41.0695 127.285 40.7958 127.628 40.6478 127.968L40.2039 127.99C39.9573 127.137 39.617 126.296 39.4962 125.428C38.8821 120.989 38.3618 116.55 37.7379 112.111C37.2743 108.826 36.7046 105.554 36.1423 102.02C35.3285 104.015 33.9969 105.204 32.3422 106.213C30.7664 107.177 29.0574 107.48 27.3534 107.655C25.2252 107.877 23.0205 107.956 20.917 107.64C19.467 107.423 18.118 106.457 16.7469 105.781C15.9898 105.406 15.2944 104.908 14.5423 104.518C10.3352 102.336 6.44135 99.712 3.63746 95.8329C2.12085 93.7343 1.19114 91.3743 2.20962 88.6049C2.89271 86.7455 4.09613 85.7345 5.9284 85.2906C6.22643 85.2203 6.50897 85.0957 6.76192 84.9231C4.75456 84.8911 3.06285 84.1217 1.4254 83.0884C-0.520305 81.8554 -0.327956 80.0009 1.11468 78.7112C1.87422 78.033 3.03575 77.7938 4.03449 77.4116C4.44454 77.288 4.86582 77.2054 5.29217 77.165C2.86065 70.1293 4.60169 63.8163 8.22923 57.8435C9.89837 55.0692 12.5997 53.0702 15.7408 52.285C19.028 51.4318 22.3448 51.9176 25.3583 53.5353C27.1709 54.5094 28.8429 55.7548 30.5025 56.9878C31.1585 57.481 31.6097 58.2356 32.1547 58.8743L32.5814 58.7535C32.2386 55.6216 32.0882 52.4527 31.5062 49.3677C30.7047 45.1582 29.5679 41.0128 28.5642 36.8427C27.6641 33.1041 26.6185 29.3977 25.8836 25.6271C25.2942 22.5988 25.0106 19.5039 24.7147 16.4263C24.4681 13.7136 24.2683 10.9813 24.2363 8.25628C24.2116 6.22426 24.5273 4.21446 25.6222 2.38958C26.399 1.09984 27.3904 0.239183 28.9316 0.251513C30.431 0.263844 31.2374 1.25028 31.8613 2.48576C32.8847 4.50792 34.2262 6.41171 34.9611 8.53004C36.86 13.9923 38.5023 19.5459 40.2458 25.0525C40.7686 26.7048 41.2964 28.357 41.9967 29.9846C41.8118 28.505 41.6811 26.9908 41.432 25.5087C40.8993 22.3423 40.2705 19.1883 39.7452 16.0194C39.252 13.0602 38.887 10.0713 38.3889 7.10713C38.0769 5.45936 38.2596 3.75606 38.9142 2.21201C39.5874 0.655932 41.7304 -0.224445 43.4196 -0.00743332C45.5059 0.258899 46.7315 1.55851 47.6119 3.17624C50.0064 7.61512 51.8633 12.3006 52.8054 17.2968C53.2986 19.9231 53.9028 22.5322 54.322 25.1709C54.6598 27.3016 54.8473 29.4593 55.0076 31.6122C55.3602 36.3322 55.7104 41.0522 55.9447 45.7796C56.0458 47.8585 55.8337 49.9522 55.814 52.0409C55.7868 55.0149 55.814 57.9915 55.9447 61.0222C56.2801 59.8287 56.5784 58.6252 56.9533 57.444C57.8139 54.7314 58.857 52.0705 59.5574 49.3208C60.4797 45.7081 61.1258 42.0288 61.9297 38.3864C62.4821 35.8858 62.9926 33.3705 63.7374 30.9242C64.0653 29.849 64.8076 28.833 65.5671 27.9649C66.958 26.3743 69.2046 26.4853 70.6497 28.0488C71.9633 29.4063 72.7853 31.164 72.985 33.0425C73.2316 35.5603 73.53 38.093 73.4659 40.6108C73.3473 46.5815 72.4097 52.5076 70.6793 58.2233C69.6929 61.4291 68.7286 64.6646 67.503 67.7891C66.6988 69.8813 65.6315 71.8627 64.3267 73.6854C62.5438 76.1317 61.4415 78.8493 60.5241 81.6507C59.3626 85.1944 58.211 88.7652 57.4194 92.4027C56.9262 94.6665 57.1037 97.0881 56.9779 99.4235C56.9187 100.481 56.7313 101.544 56.8078 102.592C57.0717 106.703 57.444 110.807 57.7079 114.923C57.8164 116.599 57.7597 118.286 57.7671 119.968C57.7671 121.184 57.7671 122.402 57.7473 123.618C57.7473 123.795 57.6216 123.973 57.412 124.523C57.0125 123.724 56.6154 123.241 56.5316 122.708C56.2209 120.701 55.9545 118.683 55.772 116.659C55.4145 112.674 55.1309 108.681 54.8054 104.693C54.5588 101.603 53.7869 98.4617 54.1321 95.4433C54.5686 91.6431 55.7942 87.912 56.8793 84.2104C57.8953 80.758 59.4785 77.5201 61.2269 74.3463C63.155 70.9277 64.8044 67.3593 66.159 63.6757C67.4512 60.0334 68.1516 56.1764 69.0615 52.4034C69.4977 50.7623 69.819 49.0929 70.0233 47.4072C70.2132 45.4344 70.0923 43.4295 70.2008 41.4443C70.3069 39.5455 70.6595 37.6515 70.6719 35.7551C70.6719 33.6689 70.7236 31.5037 68.8988 29.923C68.3242 29.4298 67.7792 29.4297 67.4783 30.0536C66.7977 31.4568 65.9987 32.8748 65.6855 34.3766C65.0246 37.6269 64.7731 40.9585 64.1147 44.2087C63.512 46.9472 62.7713 49.6535 61.8952 52.3171C61.0149 55.1432 60.0136 57.9347 58.9976 60.7189C58.5711 61.8074 58.0769 62.8683 57.518 63.8952C56.8694 65.1528 55.5723 64.4673 54.5982 64.709C54.3072 64.7805 53.6734 64.0086 53.4194 63.5105C53.1676 62.9585 53.0453 62.3562 53.0619 61.7497C53.0446 58.931 53.126 56.1099 53.0939 53.2912C53.0446 49.0224 53.0939 44.7439 52.8103 40.4875C52.4552 34.9981 52.0286 29.4988 51.2617 24.0562C50.3616 17.6445 48.66 11.4326 45.6415 5.64969C45.247 4.89508 44.845 4.08621 44.2458 3.51655C43.8265 3.11705 42.9486 2.77674 42.4801 2.96416C41.94 3.16638 41.2471 3.99003 41.2742 4.5005C41.4986 7.86172 41.8217 11.223 42.2606 14.5644C42.7538 18.3054 43.4936 22.0144 44.0189 25.7529C44.6083 29.8983 45.1878 34.0511 45.5873 38.2162C45.8339 40.7143 45.6391 43.2495 45.7747 45.7624C45.9325 48.6945 46.2038 51.6242 46.4849 54.5513C46.7315 57.1851 47.0768 59.8114 47.3579 62.4427C47.4516 63.3157 47.1409 64.0505 46.2112 64.1837C45.2248 64.3267 44.8006 63.5228 44.6897 62.7608C44.3641 60.5413 44.2236 58.3219 43.9054 56.1025C43.2569 51.6069 42.7538 47.0743 41.7995 42.6403C40.4037 36.1497 38.8114 29.7018 37.0227 23.2967C35.6565 18.3843 33.9772 13.5484 32.2386 8.74702C31.4889 6.7076 30.2386 4.82109 29.2251 2.86798ZM12.8827 84.8245C14.202 85.7147 15.8419 86.568 17.1538 87.7837C19.0773 89.542 20.7937 91.5296 22.5446 93.4556C23.1118 94.0795 23.5828 94.1313 24.0242 93.4556C25.0747 91.828 26.2609 90.2498 27.0501 88.4964C29.3188 83.4484 29.5605 78.2352 27.8293 72.9603C27.0057 70.4499 26.214 67.9124 24.5692 65.7866C23.8294 64.8347 23.0896 63.7102 22.0711 63.1825C18.816 61.4883 15.0922 63.5968 14.2883 66.8964C13.3315 70.8248 13.4868 75.1231 10.678 78.4868C11.5855 79.0786 12.5497 79.4732 13.1736 80.1834C13.7507 80.8344 14.3203 81.8431 14.2439 82.6273C14.1526 83.4509 13.2969 84.2006 12.8827 84.8245ZM6.44873 83.4435C6.69533 82.4571 6.88768 81.9639 6.90988 81.4509C7.00112 79.2019 6.61891 78.5262 4.31563 78.6643C3.62267 78.7038 2.91242 79.0268 2.28605 79.3622C1.44759 79.8135 1.27497 81.0219 2.03944 81.4485C3.41549 82.2105 4.90253 82.7579 6.4586 83.4435H6.44873ZM7.96041 83.3227C9.10959 83.3227 10.313 83.3646 11.5115 83.2955C11.837 83.2758 12.3154 82.9749 12.4067 82.6987C12.4332 82.5134 12.414 82.3245 12.3508 82.1483C12.2876 81.972 12.1824 81.8139 12.0442 81.6877C10.8654 80.8689 9.62499 80.1415 8.33032 79.3326C8.18482 80.7999 8.08125 82.028 7.96041 83.3227Z" fill="#31342A"/>
</g>
<defs>
<clipPath id="clip0">
<rect width="73.461" height="128" fill="white"/>
</clipPath>
</defs>
</svg>
