<svg width="108" height="64" viewBox="0 0 108 64" fill="none" xmlns="http://www.w3.org/2000/svg">
<path d="M31.7627 64.0001C31.7218 62.0975 33.1309 61.3507 34.1333 60.4557C36.4938 58.351 38.936 56.277 41.5906 54.5763C43.9408 53.0701 46.6413 52.1162 49.1552 50.8529C54.3005 48.2674 59.8474 46.4824 64.6271 43.1604C68.7035 40.3294 72.7671 37.4831 76.8333 34.6368C77.1325 34.4271 77.3959 34.1688 77.6746 33.9335C77.6439 33.8031 77.6158 33.6726 77.5851 33.5422C77.0097 33.5704 76.4241 33.5422 75.8615 33.6368C71.647 34.3427 68.2611 36.7312 64.8726 39.1019C63.732 39.8998 62.6682 40.8102 61.4892 41.539C61.0366 41.8178 60.3614 41.7359 59.7886 41.8178C59.9804 41.2347 59.9957 40.4291 60.3972 40.1044C61.8728 38.9101 63.4251 37.79 65.0439 36.7977C68.0872 34.9283 71.1969 33.1663 74.4677 31.2508C73.6826 31.2074 73.0075 31.1025 72.3426 31.1409C68.0769 31.3941 64.2 32.9208 60.543 34.9973C58.2414 36.3041 56.0983 37.8871 53.853 39.3013C53.0807 39.7872 52.2214 40.1299 51.3008 40.3345C56.7147 34.1585 63.6962 30.8033 71.6112 29.1129C71.5703 28.9799 71.5319 28.8469 71.491 28.714C69.8926 28.714 68.2662 28.5324 66.696 28.7472C61.9572 29.3968 57.7171 31.4938 53.5461 33.6803C51.2778 34.8695 49.1475 36.322 46.9431 37.6314C46.5313 37.8769 46.0557 38.0099 45.5058 38.0252C48.0734 35.3477 50.9939 33.1356 54.2852 31.4989C57.5688 29.8648 60.9854 28.4915 64.0824 27.1207C60.5839 26.9622 56.9551 27.7575 53.6663 29.7395C50.4492 31.6779 47.2934 33.7315 44.199 35.8668C43.0303 36.6724 42.1864 37.9408 41.0637 38.8308C38.8874 40.5544 36.6063 42.1502 34.3865 43.8202C32.1258 45.5234 29.9444 47.3365 27.6224 48.9476C25.5867 50.3593 23.413 51.5715 21.275 52.8322C20.8735 53.0701 20.3621 53.1212 19.7662 53.0317C25.6609 48.1497 31.5095 43.2601 37.8517 38.8717C34.0285 38.3065 30.0876 38.6492 26.8091 36.7466C25.5484 37.3245 24.4436 37.8206 23.3465 38.3347C19.2752 40.2399 15.2116 42.1656 11.1301 44.0503C9.52917 44.7894 7.89248 45.4543 6.25578 46.1039C6.01027 46.2011 5.66247 46.0425 5.36327 46.0041C5.52438 45.7024 5.60366 45.2574 5.85427 45.1193C8.72617 43.5286 11.5955 41.9277 14.5237 40.4496C17.0068 39.1965 19.5514 38.0687 22.1011 36.9563C23.234 36.4601 24.4436 36.1379 25.7811 35.6827C24.84 34.9309 23.3414 35.3272 22.9578 33.9156C25.3105 33.7801 27.5508 33.7519 29.7654 33.4962C32.6884 33.1586 35.6652 32.908 38.4834 32.1306C41.253 31.3659 43.7745 29.5374 44.02 26.5044C44.1709 24.6273 43.4267 23.7476 41.4959 23.5481C37.977 23.1824 34.8545 24.2412 31.8829 26.0441C30.5582 26.8471 29.1184 27.4813 27.6786 28.0593C27.272 28.2229 26.6761 27.9186 26.1698 27.8291C26.4358 27.443 26.6199 26.9161 26.9856 26.6962C28.3461 25.8753 29.9649 25.3766 31.1157 24.3409C32.4839 23.1083 34.0413 22.5354 35.701 22.1493C38.041 21.6071 40.4295 21.0701 42.8334 21.7631C45.0711 22.405 46.0608 23.7374 46.0148 26.0543C45.9969 26.9213 46.2193 27.4762 47.0351 27.8035C47.3804 27.9416 47.6693 28.2153 47.9865 28.4224C50.1986 29.8622 50.1986 29.8596 52.4976 28.1155C51.3212 26.7781 50.265 25.3153 48.948 24.1414C46.6362 22.0777 43.7873 21.2542 40.7159 20.978C36.2253 20.5714 31.8087 20.8936 27.4357 21.9523C25.4972 22.4229 23.7761 23.231 22.1471 24.4739C19.2292 26.7013 16.2217 28.8521 13.0506 30.6959C9.83094 32.5679 6.38109 34.046 3.01307 35.6546C2.35072 35.9717 1.5784 36.4806 0.726807 35.4756C2.41209 34.4526 4.02833 33.486 5.63434 32.4988C9.54452 30.0924 13.5621 27.8419 17.3239 25.2206C22.4054 21.6787 27.9088 19.6277 34.0848 19.1776C37.5346 18.927 40.964 19.0037 44.2758 19.8656C46.47 20.4358 48.4979 21.6506 50.7024 22.6224C51.3673 20.7299 52.1907 18.5102 52.9221 16.2597C53.7661 13.6691 54.5358 11.0555 55.3209 8.44704C55.9782 6.26562 57.1162 4.71843 59.6198 4.37063C63.0339 3.89497 66.4044 3.09964 69.8159 2.62141C74.1583 2.01277 78.5237 1.56779 82.8814 1.08957C84.3033 0.933569 85.7354 0.905438 87.1649 0.808259C90.8347 0.560197 94.4994 0.255874 98.1717 0.0768598C100.399 -0.0305485 102.639 0.128007 104.864 0.0103689C105.887 -0.0433352 106.051 0.762227 106.606 1.19186C107.23 1.67264 107.35 2.05368 107.197 2.90784C106.235 8.25523 105.486 13.641 104.529 18.9884C103.939 22.295 103.118 25.5633 102.376 28.8418C101.847 31.1741 101.317 33.509 100.698 35.8208C100.491 36.5931 100.003 37.2862 99.5552 38.194C99.8954 38.8768 99.8289 39.5417 98.6499 39.9944C97.2485 40.5314 95.975 41.4163 94.5633 41.9124C93.3051 42.3523 91.942 42.5236 90.6097 42.7103C87.0959 43.1987 83.5846 43.7383 80.0555 44.0452C78.0454 44.2217 75.9996 44.0248 73.9716 43.9199C72.5395 43.8457 71.1074 43.6846 69.6906 43.4698C69.0206 43.3675 68.3812 43.053 67.6575 42.8126C63.3254 46.577 58.2593 49.1906 52.6894 51.0216C47.1349 52.8476 42.0048 55.5686 37.573 59.4762C36.0795 60.7932 34.5246 62.0387 32.9749 63.2892C32.6168 63.5731 32.1719 63.7623 31.7627 64.0001ZM104.816 1.27114C103.309 1.27114 101.89 1.19953 100.478 1.2916C98.9747 1.38878 97.4838 1.69566 95.9775 1.80818C92.2464 2.08693 88.5075 2.26594 84.7789 2.56259C80.9813 2.86436 77.1836 3.21983 73.3962 3.62645C71.0128 3.88218 68.6498 4.30159 66.2689 4.60335C63.8138 4.91535 61.3486 5.13784 58.8986 5.48308C58.4741 5.5419 57.9729 5.92294 57.7402 6.29887C57.3924 6.85637 57.2261 7.53662 57.0267 8.17851C55.4079 13.3904 53.7916 18.6022 52.1958 23.8218C52.0987 24.144 52.0373 24.5915 52.1856 24.8524C52.6996 25.7526 53.3134 26.599 53.8786 27.4481C54.1011 27.3867 54.2775 27.3662 54.4284 27.2946C57.7836 25.6963 61.3153 25.0442 65.0132 25.3741C65.7114 25.4354 66.7625 25.4815 67.0156 25.9086C67.8826 27.3739 69.1791 26.7269 70.312 26.8676C70.688 26.9136 71.0741 26.8599 71.4501 26.9059C73.1814 27.1105 73.8463 27.7677 73.8898 29.1487C74.6339 29.4121 75.4881 29.4914 75.9868 29.9543C76.4778 30.4095 76.6057 31.2534 76.7719 31.6421C77.6005 32.1485 78.6208 32.4272 78.9047 33.0435C79.2065 33.6982 78.8101 34.6751 78.741 35.3221C80.6642 35.3221 82.7688 35.3554 84.8735 35.3119C87.1547 35.2659 89.4358 35.069 91.7144 35.092C93.0033 35.1048 94.3996 34.6649 95.6297 35.9103C94.9162 36.0049 94.2053 36.0996 93.4918 36.1942C93.4918 36.2198 93.4918 36.2453 93.4918 36.2683C94.3255 36.2683 95.1566 36.2683 95.888 36.2683C96.5759 34.1483 97.3661 32.105 97.8878 29.9977C98.4505 27.7166 98.6934 25.3562 99.1998 23.0597C99.7879 20.3924 100.558 17.7634 101.161 15.0987C101.68 12.8022 101.967 10.4494 102.563 8.17596C103.153 5.91015 104.005 3.7134 104.816 1.27114ZM97.9492 38.0406C101.655 26.6195 103.435 14.6 105.734 2.6879C104.79 5.32452 103.936 7.98671 103.343 10.7052C102.166 16.0781 101.202 21.4971 100.013 26.8676C99.4427 29.4454 98.6065 31.9695 97.7983 34.4884C97.2792 36.1047 96.512 37.5726 94.4508 37.6161C94.1771 37.6212 93.9112 37.8258 93.6401 37.9306C91.7656 38.6595 89.8962 39.4088 88.0088 40.1095C87.1138 40.4419 86.1855 40.69 85.275 40.979C84.4081 41.2526 83.5412 41.5313 82.6742 41.8075C82.7049 41.9277 82.7382 42.0479 82.7689 42.1681C87.8017 40.7386 93.2156 40.9253 97.9492 38.0406ZM71.7851 39.8179C71.8285 39.9049 71.872 39.9918 71.9155 40.0788C75.3091 39.7642 78.7359 39.6594 82.0835 39.0763C85.4361 38.4907 88.707 37.4294 92.0111 36.5752C88.3669 36.5752 84.7687 36.5062 81.1731 36.611C79.8305 36.6519 78.5237 35.716 77.2527 36.3374C76.0124 36.946 74.9204 37.8565 73.7517 38.616C73.1072 39.0354 72.4423 39.4164 71.7851 39.8179ZM36.2125 34.8746C38.9309 34.4066 41.9742 36.4116 44.3602 33.6164C44.6977 33.22 45.2808 33.0359 45.7386 32.7392C46.25 32.4068 46.7487 32.059 47.4187 31.6063C46.3191 31.4043 45.4726 31.2304 44.621 31.1025C44.3601 31.0642 43.9893 31.0411 43.8231 31.1869C41.6212 33.1203 39.0537 34.2301 36.2125 34.8746ZM40.542 36.9128C40.5548 36.7747 40.5651 36.634 40.5778 36.4959C36.1281 36.0663 31.6783 35.6392 27.226 35.2096C31.5504 36.9614 36.0974 36.4064 40.542 36.9128ZM75.8027 41.9763C74.3296 41.0813 70.2251 41.0071 69.7724 41.6234C71.7774 41.7411 73.79 41.8587 75.8027 41.9763ZM45.8434 28.5707C45.5237 29.1768 45.2092 29.7676 44.8895 30.3737C45.7923 30.2765 46.6029 30.1895 47.4852 30.0949C46.8919 29.5451 46.3805 29.072 45.8434 28.5707Z" fill="#342B1E"/>
<path d="M54.2826 24.5454C54.6048 23.2283 54.8733 21.8985 55.2569 20.5994C56.0881 17.7812 57.0343 14.9963 57.8271 12.1678C58.3667 10.2447 59.4152 9.24737 61.5096 9.20645C65.2382 9.13484 68.9668 8.93281 72.6903 8.70777C77.6413 8.40856 82.5872 8.05309 87.5331 7.68483C89.6685 7.52628 91.8065 7.33447 93.9265 7.03527C94.975 6.88694 95.9672 6.36013 97.0158 6.19902C97.696 6.09416 98.5016 6.19134 99.1102 6.49055C99.4555 6.65934 99.7214 7.43165 99.6703 7.89709C99.5066 9.40081 99.1895 10.8892 98.9184 12.3827C98.164 16.5281 97.4582 20.6838 96.6194 24.8139C96.3176 26.3048 95.6936 27.7293 95.2179 29.1869C95.1924 29.2662 95.1157 29.3583 95.1387 29.4222C95.7141 31.1408 94.4175 30.6983 93.617 30.6856C91.208 30.6472 88.799 30.5219 86.39 30.4784C84.1907 30.4375 81.9914 30.4656 79.7895 30.4375C79.3701 30.4324 78.9533 30.3071 78.5364 30.238C78.5236 30.0922 78.5083 29.9439 78.4955 29.7982C79.3036 29.5885 80.1066 29.2253 80.9199 29.1946C84.6152 29.0514 88.3131 28.9772 92.011 28.9389C92.7373 28.9312 93.6273 29.4989 94.1439 29.2279C94.5454 29.0182 94.5019 27.9236 94.6272 27.2178C95.4762 22.4535 96.2971 17.6815 97.1717 12.9223C97.4837 11.2319 97.9236 9.56703 98.343 7.72575C97.4889 7.67972 96.7293 7.52628 96.0031 7.61578C92.8243 8.00706 89.6583 8.50318 86.4795 8.8919C84.3441 9.15274 82.196 9.35733 80.0478 9.47241C75.864 9.69234 71.6751 9.80742 67.4913 10.0146C65.0925 10.1348 62.6937 10.3163 60.3051 10.5644C59.9548 10.6002 59.4842 11.0963 59.3666 11.4748C58.2925 14.9221 57.3182 18.4026 56.239 21.8474C55.9219 22.8601 55.3618 23.7986 54.9143 24.7704C54.7046 24.6937 54.4923 24.6195 54.2826 24.5454Z" fill="#342B1E"/>
</svg>
