<svg width="74" height="64" viewBox="0 0 74 64" fill="none" xmlns="http://www.w3.org/2000/svg">
<path d="M50.4812 23.9327C49.7995 23.9663 49.0955 24.0101 48.3914 24.028C48.2165 24.0325 47.99 24.0078 47.8712 23.9013C47.4362 23.5134 47.1402 23.6905 46.8005 24.0459C46.4036 24.4608 45.9473 24.8195 45.5291 25.2153C44.8408 25.8644 44.1625 26.5225 43.4797 27.1773C42.8104 27.8197 42.1433 28.4643 41.4179 29.1617C42.4527 29.9723 43.4102 30.6976 44.3385 31.4578C45.3273 32.2683 46.2882 33.1126 47.2602 33.9433C47.5562 34.1967 47.8936 34.4187 48.1302 34.7203C48.2849 34.9176 48.4374 35.329 48.3387 35.4726C48.0965 35.8235 47.7367 35.634 47.4665 35.4109C46.7624 34.829 46.0763 34.2281 45.3722 33.6451C44.5717 32.9825 43.7757 32.3154 42.9517 31.6831C42.1859 31.0956 41.3854 30.5519 40.5883 29.9801C40.2688 30.2503 39.9537 30.5373 39.6185 30.7952C38.2519 31.8457 36.7338 32.5845 35.0196 32.8177C34.7427 32.8558 34.3851 32.5071 34.1194 32.2751C34.0577 32.2213 34.172 31.876 34.2864 31.7246C35.1889 30.5283 36.1026 29.3388 37.0343 28.165C37.2249 27.9251 37.5052 27.7558 37.7709 27.5316C34.6822 24.5538 31.571 21.6198 28.9689 18.2071C28.9162 18.1387 28.9453 18.0075 28.924 17.7676C30.9331 19.2486 32.4466 21.0783 34.1429 22.6669C34.431 22.0884 34.6934 21.5111 34.9983 20.9583C35.477 20.0895 36.1598 19.3787 37.041 18.9504C37.6947 18.632 38.4413 18.3495 39.1521 18.3349C40.5401 18.3069 41.465 19.1264 41.65 20.7913C41.7072 21.3059 41.715 21.8283 41.7072 22.3463C41.7005 22.8643 41.6467 23.3811 41.6063 24.0235C43.5302 22.2768 45.3845 20.5951 47.2288 18.9212C47.2176 18.8607 47.2243 18.8102 47.203 18.7934C46.2915 18.0613 46.1884 17.633 46.8341 16.6767C47.2108 16.1195 47.7019 15.6385 48.1223 15.1475C46.5191 14.5724 45.6626 13.32 45.9451 11.5352C46.1088 10.5038 46.4092 9.41625 47.5225 8.90165C47.7411 8.80075 48.0012 8.76263 48.2457 8.74693C49.4587 8.66621 50.6819 8.65948 51.8198 9.13484C52.8098 9.54966 53.7616 10.062 54.7101 10.5688C55.5162 10.9993 55.4949 11.0139 56.1609 10.4006C57.3807 9.27835 58.6745 8.22785 59.8247 7.03944C61.8439 4.95525 64.0368 3.08408 66.3329 1.32165C66.7141 1.02904 67.0191 0.636639 67.4081 0.358598C68.3532 -0.316325 69.1862 -0.0181035 69.4912 1.09182C69.7501 2.0347 70.1179 2.97981 69.878 3.97538C69.7715 4.41711 69.5741 4.89247 69.2748 5.22208C68.5225 6.04948 67.7063 6.82306 66.8778 7.57647C66.417 7.99577 65.8632 8.31305 65.3822 8.7133C64.7757 9.21781 64.168 9.72905 63.6187 10.293C63.0345 10.8917 62.7139 10.8771 62.2374 10.154C61.4268 10.8995 60.6118 11.6484 59.6824 12.5039C60.086 12.542 60.4212 12.6317 60.743 12.5947C63.7252 12.2561 66.4193 13.0207 68.8375 14.745C70.2849 15.7765 71.23 17.2216 71.9666 18.8248C72.8153 20.6736 73.2963 22.5761 72.9218 24.611C72.6068 26.3297 71.7648 27.7311 70.239 28.6504C70.0719 28.7513 69.8017 28.683 69.5797 28.693C69.6246 28.5047 69.6246 28.2894 69.721 28.1336C70.1022 27.5203 70.5204 26.9295 70.9128 26.3218C71.7491 25.0269 71.9823 23.6222 71.6684 22.1165C71.2368 20.0536 70.5731 18.0692 69.0696 16.5433C68.3016 15.7641 67.2893 15.2237 66.3789 14.588C65.5526 14.0118 64.5526 14.0779 63.6254 13.9243C62.511 13.7393 61.373 13.6418 60.2429 13.6261C59.2092 13.6115 58.1677 13.7068 57.1407 13.8414C55.6194 14.0409 54.0823 14.2147 52.5979 14.588C50.9207 15.0096 49.313 15.6744 48.1021 17.0075C47.9575 17.1667 47.7793 17.512 47.8454 17.6005C47.9788 17.7799 48.2692 17.9369 48.4957 17.938C49.4049 17.9391 50.3141 17.8752 51.2234 17.8371C52.1259 17.799 53.0351 17.8147 53.9309 17.7115C55.3447 17.549 56.7495 17.3158 58.1565 17.0949C60.1319 16.7855 62.1018 16.4559 64.1164 16.6408C64.8351 16.707 65.5605 16.6969 66.2825 16.7238C66.6076 16.7361 66.9439 16.7518 66.9888 17.1824C67.0336 17.6061 66.6984 17.7642 66.3991 17.8012C65.7623 17.8797 65.1154 17.8954 64.473 17.8965C63.4752 17.8988 62.4706 17.7878 61.4795 17.8696C60.3595 17.9615 59.2496 18.2015 58.1397 18.3999C56.7562 18.6466 55.3626 18.8551 54.0004 19.1914C52.5295 19.5536 51.0373 19.9056 49.7457 20.7677C49.2962 21.0671 48.8399 21.3664 48.4385 21.7241C48.2098 21.9281 48.0853 22.251 47.9149 22.5201C48.249 22.6916 48.573 22.9741 48.9206 23.0067C49.3455 23.047 49.7984 22.9069 50.2256 22.7948C51.9757 22.3351 53.7033 21.7689 55.4725 21.4113C57.0084 21.1018 58.587 20.9796 60.1532 20.8496C61.9616 20.6994 63.7779 20.6343 65.5896 20.5267C65.8295 20.5121 66.0683 20.4348 66.3071 20.4336C66.9574 20.4303 67.5348 20.5906 67.8521 21.3698C66.5392 21.5055 65.2297 21.6377 63.9202 21.7779C62.6343 21.9158 61.3528 22.1254 60.0635 22.1849C58.7698 22.2443 57.5634 22.6367 56.3178 22.8923C54.8301 23.1972 53.4141 23.6771 52.1102 24.4204C51.3703 24.8431 50.7548 25.4855 50.0832 26.0281C50.0966 26.1144 50.1101 26.2019 50.1224 26.2882C50.6482 26.5091 51.1561 26.8376 51.7044 26.9306C53.3502 27.2098 54.9377 26.6985 56.5421 26.4384C58.8415 26.0662 61.1443 25.712 63.4426 25.3308C64.2633 25.1951 65.0705 24.9832 65.8912 24.8453C66.1782 24.7971 66.4854 24.8633 66.8408 24.8801C66.6244 25.6693 65.9775 25.7445 65.5033 25.8633C64.2745 26.1716 63.2319 26.8095 62.1556 27.4239C61.4414 27.832 60.6701 28.1863 59.8797 28.4049C58.0769 28.9038 56.2382 29.2749 54.4321 29.7637C53.969 29.8893 53.5397 30.2189 53.1585 30.5317C52.8468 30.7873 52.8513 31.1371 53.1831 31.4466C53.9164 32.1293 54.7987 32.1237 55.7012 32.0026C57.4053 31.7739 59.1151 31.5721 60.8091 31.2784C61.6062 31.1405 62.3977 30.8781 63.1455 30.5609C64.9035 29.8142 66.6323 29.0002 68.3734 28.2154C68.4575 28.1773 68.5472 28.1246 68.6346 28.1235C68.8061 28.1224 68.9766 28.1549 69.1481 28.1728C69.1089 28.3365 69.1234 28.5619 69.0203 28.6538C68.6043 29.0215 68.1895 29.4151 67.7063 29.674C66.5986 30.2682 65.482 30.8703 64.3104 31.3165C62.9292 31.8423 61.5098 32.3446 60.0624 32.6058C58.2316 32.9365 56.3582 33.0565 54.4982 33.1854C53.608 33.2471 52.8232 32.7975 52.2436 32.1439C51.3052 31.0867 51.8613 29.6628 53.0923 29.1662C54.1148 28.7536 55.19 28.4655 56.2517 28.1538C57.7618 27.7098 59.2799 27.2939 60.7934 26.8634C60.8607 26.8443 60.9212 26.8051 60.9705 26.7165C60.0961 26.8443 59.2227 26.9721 58.3482 27.0999C56.6452 27.3488 54.9444 27.61 53.2392 27.8399C52.5228 27.9363 51.7974 27.9733 51.0743 28.0148C50.8792 28.026 50.6527 28.0013 50.4879 27.9083C50.035 27.6538 49.5832 27.3869 49.1773 27.064C48.6627 26.6548 48.6044 25.9362 49.0742 25.361C49.5058 24.8375 50.0249 24.3901 50.4812 23.9327ZM40.4336 22.6658C40.4908 22.6625 40.5491 22.6602 40.6062 22.6569C40.5345 21.9214 40.5311 21.1702 40.3618 20.4583C40.2811 20.1208 39.928 19.6825 39.6185 19.604C39.1689 19.4885 38.6117 19.5625 38.161 19.7217C36.7428 20.2251 35.8493 21.3081 35.2696 22.6512C35.1071 23.0268 35.005 23.473 35.4008 23.8374C36.402 24.7579 37.3964 25.6862 38.3875 26.6178C38.6005 26.8185 38.7855 26.8533 39.0064 26.6358C39.3237 26.3241 39.6847 26.0528 39.965 25.7131C40.1724 25.4608 40.3854 25.1357 40.4134 24.8263C40.4784 24.1098 40.4336 23.3856 40.4336 22.6658ZM48.8769 14.7719C50.2839 13.9042 51.8714 13.3806 53.5632 13.162C53.7089 13.1429 53.8648 13.0218 53.9702 12.9063C54.2404 12.6081 54.4848 12.2875 54.7415 11.9724C53.9264 11.589 53.1338 11.2291 52.3535 10.8457C51.1707 10.2638 49.9083 10.1001 48.6145 10.117C48.4362 10.1192 48.2176 10.2313 48.0898 10.3625C47.0281 11.45 47.0236 12.6339 48.0438 13.7663C48.3241 14.0768 48.5786 14.4098 48.8769 14.7719Z" fill="#342B1E"/>
<path d="M27.4362 45.5346C27.1077 46.3608 26.7467 47.2454 26.4159 48.1423C26.3801 48.2387 26.4899 48.4596 26.5931 48.5246C27.4597 49.0661 28.3376 49.5886 29.2188 50.1066C29.7199 50.4014 30.2256 50.2388 30.646 49.9675C31.4868 49.4238 32.2784 48.8049 33.099 48.2298C33.9668 47.6221 34.8446 47.0324 35.7169 46.4315C36.0992 46.1691 36.4748 45.8978 36.8571 45.6355C38.3897 44.585 39.9032 43.5042 41.4649 42.5008C42.4616 41.8606 43.5323 41.337 44.5694 40.7608C45.5604 40.2092 46.5482 39.6531 47.5426 39.1093C47.657 39.0466 47.8049 39.0454 47.9384 39.0163C47.9215 39.1676 47.9608 39.3728 47.8778 39.4591C47.5942 39.7506 47.2959 40.0477 46.9518 40.2574C45.5077 41.1364 44.0234 41.9525 42.5939 42.8528C41.4773 43.5558 40.4256 44.3607 39.3303 45.1007C37.652 46.2342 35.959 47.3452 34.2796 48.4764C33.9903 48.6715 33.7302 48.9125 33.4712 49.1491C32.5003 50.0326 31.4308 50.7568 30.2009 51.2378C29.7166 51.4273 29.2726 51.2983 28.8723 51.0651C27.9127 50.5034 26.9776 49.8991 25.954 49.2646C25.8442 49.8296 25.7309 50.4104 25.602 51.0741C25.121 50.6638 25.0997 50.1671 25.1412 49.6816C25.2657 48.195 25.8509 46.8351 26.3498 45.4516C26.8139 44.1623 27.2927 42.8775 27.6996 41.5691C27.8443 41.1038 27.8745 40.5702 27.8174 40.0836C27.7378 39.4042 27.0684 39.1407 26.4664 39.4793C25.0347 40.2843 23.9595 41.4133 23.1568 42.8595C22.2543 44.4841 21.6735 46.2129 21.3114 48.0123C21.0435 49.3442 21.3933 50.5629 22.2072 51.6874C22.844 52.5674 23.5481 53.3029 24.6524 53.4733C25.1715 53.5529 25.7287 53.5473 26.2444 53.4498C26.8599 53.3332 27.4698 53.1235 28.0416 52.8634C28.4273 52.6885 28.6907 52.7659 28.934 53.0294C29.526 53.6729 30.0854 54.3467 30.6841 54.9835C31.4487 55.7952 32.2156 56.608 33.0239 57.3749C33.913 58.218 34.8491 59.0129 35.7673 59.8246C36.5331 60.5017 37.3167 61.1587 38.0668 61.8527C38.4334 62.1924 38.7563 62.5837 39.0691 62.9749C39.272 63.2283 39.4099 63.5108 39.0982 63.8169C38.7955 64.114 38.5119 64.0041 38.254 63.7979C37.8762 63.4952 37.5253 63.1588 37.1631 62.837C35.8862 61.7025 34.5778 60.6004 33.3401 59.4243C32.118 58.2639 30.9554 57.0397 29.7894 55.8221C29.3421 55.3546 28.9497 54.8333 28.5495 54.3231C28.3465 54.0642 28.1784 53.9947 27.8544 54.1808C26.5897 54.905 25.2253 55.0351 23.8676 54.5519C23.2398 54.3276 22.6691 53.8915 22.1366 53.47C21.696 53.1213 21.3069 52.684 20.9762 52.2277C20.6993 51.8454 20.5378 51.379 20.3282 50.9541C19.2766 51.7535 17.7709 51.3712 17.1733 50.1256C17.1329 50.0427 17.1285 49.9204 17.0657 49.8745C16.2372 49.2758 16.1497 48.4372 16.3257 47.5347C14.4602 46.982 13.2718 45.2599 13.2516 43.5412C13.2303 41.8102 13.5274 40.1385 13.8917 38.4737C14.4344 35.9959 15.0577 33.5351 15.6183 31.0607C15.7741 30.3746 15.8201 29.6638 15.9311 28.9664C15.9916 28.5819 15.8167 28.4653 15.4636 28.4686C14.6597 28.4765 14.2662 29.0842 13.8391 29.6021C12.8289 30.8298 12.3827 32.3029 12.1484 33.8411C11.9298 35.2739 11.6988 36.709 11.5957 38.1519C11.5194 39.2192 11.6371 40.3011 11.6775 41.3752C11.6954 41.8483 11.617 42.3707 11.7919 42.7833C12.0621 43.4212 12.515 43.9818 12.8794 44.5816C12.9578 44.7105 12.9926 44.8653 13.0487 45.0076C12.8951 45.0379 12.7303 45.1197 12.5901 45.0884C11.9455 44.9426 11.3344 44.6309 11.1651 43.9784C10.895 42.9335 10.7638 41.8516 10.5799 40.7843C10.5205 40.439 10.4465 40.0915 10.4387 39.7439C10.3747 37.0151 10.8097 34.3479 11.5161 31.7244C11.6876 31.0854 12.0172 30.4889 12.2403 29.9519C11.1472 29.0348 9.98571 28.1615 8.94866 27.1603C8.11566 26.3553 7.41495 25.4079 6.68846 24.4976C6.277 23.983 6.79833 23.8171 7.13355 23.5984C6.09089 22.6287 6.65706 21.4997 6.77927 20.3606C6.07295 20.1498 5.51799 20.5142 5.00451 20.864C4.73096 21.0501 4.48094 21.3887 4.39462 21.706C4.16366 22.5535 3.85535 23.428 4.12442 24.3115C4.29932 24.8833 4.63342 25.4057 4.87895 25.9584C4.96303 26.1479 4.9933 26.3609 5.04824 26.5627C4.80607 26.5986 4.5527 26.7017 4.32511 26.6591C3.70624 26.5437 3.32393 26.093 3.06047 25.5627C2.61986 24.6758 2.40684 23.7576 2.71628 22.7598C2.89566 22.1802 2.91135 21.5434 3.12998 20.9828C3.63561 19.6879 5.18726 18.8045 6.58195 18.8841C7.01919 18.9087 7.43962 18.8863 7.82305 18.4849C8.38473 17.8986 9.15159 17.495 9.97899 17.6228C10.9723 17.7764 11.793 17.4479 12.6832 17.1149C13.5689 16.7831 14.5454 16.6978 15.477 16.486C15.7326 16.4277 16.0208 16.3626 16.2136 16.2045C17.1105 15.4668 18.0893 15.0789 19.2653 15.32C19.679 15.4052 20.0983 15.487 20.5177 15.5094C20.6791 15.5184 20.8775 15.3861 21.0098 15.265C21.3933 14.9164 21.7206 14.5004 22.1254 14.182C23.5066 13.0945 24.8934 13.5856 25.8733 14.7829C26.2523 15.246 26.4642 15.8491 26.7422 16.3929C26.833 16.5712 26.8902 16.7662 26.9743 16.9837C27.2041 16.9254 27.4003 16.8346 27.5943 16.8391C27.777 16.8425 28.027 16.8974 28.1156 17.023C28.1873 17.125 28.1223 17.4199 28.0158 17.532C27.8185 17.7405 27.5281 17.8571 27.3117 18.0522C27.138 18.2091 26.9104 18.4165 26.8924 18.6172C26.8308 19.3067 26.3767 19.7585 25.9843 20.2373C25.8868 20.3561 25.4372 20.3841 25.3755 20.2956C25.2399 20.1027 25.1681 19.7899 25.2197 19.559C25.2847 19.2664 25.4989 19.0074 25.5785 18.5982C24.7858 18.8471 23.9797 19.0601 23.2117 19.3695C23.029 19.4435 22.9315 19.8247 22.8687 20.0837C22.6859 20.836 22.5962 20.9828 21.9011 21.4077C21.0435 21.0019 21.7374 20.3897 21.7083 19.7821C20.9515 20.0422 20.2217 20.2743 19.512 20.5534C19.3909 20.6005 19.3225 20.8449 19.2788 21.012C19.1846 21.3707 19.1768 21.7609 19.0277 22.0916C18.9402 22.2856 18.6498 22.3876 18.4514 22.5311C18.2978 22.317 18.0803 22.1208 18.0074 21.882C17.9368 21.6499 18.0142 21.3741 18.0332 20.9952C17.106 21.3293 16.2573 21.6264 15.4199 21.9492C15.3223 21.9874 15.2663 22.1667 15.218 22.2912C15.0499 22.7228 14.9075 23.1646 14.7247 23.5883C14.6765 23.7005 14.5072 23.8395 14.4052 23.8305C14.2942 23.8204 14.1339 23.6691 14.1048 23.5513C14.0184 23.1971 13.9848 22.8293 13.922 22.4022C13.1978 22.5973 12.4365 22.7923 11.6842 23.0154C11.6058 23.039 11.5542 23.2116 11.5217 23.3249C11.4107 23.7139 11.358 24.1287 11.1932 24.492C11.0878 24.7263 10.8041 25.0682 10.636 25.0481C10.2279 25.001 10.2178 24.6052 10.2514 24.2498C10.275 23.9931 10.2772 23.7341 10.2907 23.4146C9.24801 23.6545 8.26477 23.8798 7.21315 24.1209C8.86009 26.0705 10.8176 27.6076 12.7471 29.2579C12.9836 28.9911 13.2336 28.6962 13.4971 28.4126C14.0442 27.8229 14.6754 27.361 15.5174 27.3755C16.458 27.3924 16.9984 27.9955 16.9121 28.9306C16.828 29.8263 16.6845 30.7165 16.5713 31.5798C16.7764 31.3309 16.9816 30.9946 17.2664 30.7558C17.6588 30.4273 18.0859 30.1122 18.5467 29.9003C19.0198 29.6828 19.7811 30.1212 20.1544 30.7535C20.6578 31.6045 20.78 32.5316 20.6455 33.5014C20.5973 33.849 20.5468 34.1954 20.4762 34.6898C20.826 34.4118 21.0659 34.2189 21.3092 34.0295C22.1007 33.4106 22.9729 33.1169 23.9607 33.4588C24.6793 33.7066 25.0437 34.3199 25.047 35.0082C25.0515 35.8928 24.9069 36.7852 24.7522 37.6608C24.6378 38.3089 24.4057 38.9367 24.2174 39.6026C24.7163 39.245 25.1659 38.8078 25.704 38.5701C26.241 38.3324 26.8801 38.1519 27.4507 38.2035C28.258 38.2763 29.045 39.4132 29.0102 40.2686C28.9912 40.7484 28.8903 41.226 28.8028 41.7003C28.7199 42.1521 28.6066 42.5994 28.5035 43.058C29.2053 43.6802 29.9363 44.3293 30.7794 45.0771C32.3479 44.1163 34.0228 43.0972 35.6911 42.0669C37.7618 40.7888 39.7967 39.4468 41.9089 38.2427C43.0614 37.5857 44.3406 37.1485 45.5716 36.6339C45.7006 36.5801 45.8923 36.6754 46.0549 36.7011C45.9506 36.8346 45.8744 37.0319 45.7387 37.0902C43.1747 38.1866 40.9492 39.8482 38.6195 41.3359C37.227 42.225 35.8155 43.0826 34.413 43.956C34.3547 43.9919 34.311 44.0513 34.1495 44.2038C34.3995 44.1589 34.524 44.1668 34.6159 44.1152C36.7842 42.8864 38.948 41.651 41.114 40.4166C42.1769 39.8112 43.2374 39.199 44.3092 38.6093C44.4617 38.5252 44.6759 38.5533 44.862 38.5297C44.7566 38.699 44.6916 38.9344 44.5391 39.0286C43.557 39.6329 42.5569 40.2058 41.5613 40.7899C40.2967 41.5321 39.0366 42.2833 37.7641 43.012C36.394 43.7968 34.9904 44.5267 33.6417 45.3451C32.7066 45.9124 31.8422 46.5974 30.9375 47.2174C30.6314 47.427 30.3769 47.5717 29.9621 47.2387C29.1795 46.6109 28.2927 46.103 27.4362 45.5346ZM20.0569 50.3151C20.1275 49.2579 20.1522 48.2634 20.2755 47.2824C20.3484 46.7039 20.5468 46.1321 20.7464 45.5783C21.4045 43.7542 22.0345 41.9167 22.779 40.1285C23.4304 38.5656 23.8889 36.9803 23.9494 35.2874C23.9707 34.6753 23.6512 34.3793 23.0559 34.4701C21.9807 34.636 21.3518 35.4466 20.7811 36.2247C19.3819 38.1351 18.8158 40.3863 18.383 42.6678C18.1341 43.9807 17.9267 45.3025 17.7406 46.6254C17.6251 47.445 17.4794 48.2556 17.874 49.0841C18.3483 50.0785 18.6196 50.3207 19.7385 50.3151C19.8876 50.314 20.0344 50.3151 20.0569 50.3151ZM16.3347 46.6546C16.6621 44.826 16.8706 43.1342 17.2843 41.494C17.7585 39.6172 18.4581 37.7987 18.975 35.9309C19.2597 34.9028 19.41 33.8322 19.5389 32.7704C19.5849 32.3904 19.4559 31.9509 19.2911 31.5921C19.0075 30.9721 18.7104 30.9542 18.2507 31.461C16.9581 32.8848 16.2842 34.6371 15.6957 36.4175C15.4008 37.3088 15.2349 38.2449 15.0342 39.1654C14.6821 40.7866 14.412 42.4257 14.5655 44.0883C14.6698 45.205 15.4725 45.8945 16.3347 46.6546ZM23.288 18.0836C23.9573 17.884 24.7185 17.6721 25.4652 17.4176C25.5829 17.3773 25.7421 17.0869 25.7007 17.005C25.4013 16.4176 25.1289 15.7886 24.7017 15.3032C24.3508 14.904 23.7813 14.7146 23.2375 15.0655C22.9034 15.2807 22.6041 15.5498 22.2913 15.7976C21.9762 16.0465 21.9908 16.2628 22.2599 16.5812C22.6231 17.0106 22.9045 17.5129 23.288 18.0836ZM15.4804 20.6678C16.1329 20.4458 16.9244 20.1879 17.7047 19.8987C17.8348 19.8505 18.0254 19.5893 18.0018 19.5556C17.6576 19.0578 17.3067 18.5612 16.9031 18.1116C16.7249 17.9132 16.4995 17.9591 16.4446 18.3022C16.3896 18.6497 16.3425 19.0085 16.2125 19.3303C16.1049 19.5949 15.8818 19.8135 15.7102 20.0523C15.5286 19.7698 15.2864 19.5074 15.1855 19.198C15.1048 18.9502 15.1945 18.6464 15.2113 18.3683C15.2214 18.1934 15.2382 18.0174 15.2573 17.7607C14.5252 17.9008 13.8873 18.023 13.311 18.134C14.0364 18.9805 14.7236 19.7832 15.4804 20.6678ZM19.2216 19.3852C19.5075 19.2888 19.7463 19.2383 19.9537 19.1273C20.0737 19.0634 20.2161 18.9054 20.2206 18.7843C20.2463 18.1273 20.2329 17.4703 20.2329 16.7012C19.3584 16.4467 18.3494 16.2898 17.3022 16.9041C18.3796 17.393 18.8146 18.3426 19.2216 19.3852ZM27.7467 44.8473C28.6728 45.5088 29.5574 46.1411 30.5395 46.8429C31.5306 46.1299 32.5833 45.3731 33.6349 44.6164C33.3176 44.6724 33.0598 44.8182 32.7941 44.946C30.887 45.8687 30.4722 45.816 28.9396 44.4785C28.7143 44.2811 28.5932 43.9639 28.4239 43.7015C28.3432 43.7587 28.2636 43.8159 28.1828 43.873C28.0371 44.2027 27.8891 44.5323 27.7467 44.8473ZM11.5049 20.6498C11.6966 21.0176 11.8221 21.4279 12.0901 21.6925C12.2056 21.8057 12.6215 21.6308 12.8951 21.5636C13.1989 21.4885 13.5173 21.4257 13.7886 21.281C13.9254 21.2082 14.0902 20.8965 14.0397 20.8124C13.82 20.438 13.5767 20.0422 13.2449 19.7776C12.8883 19.494 12.4231 19.3471 12.0049 19.1408C11.8468 19.6218 11.6865 20.1027 11.5049 20.6498ZM7.67281 23.3944C8.49124 23.0838 9.20652 22.8125 9.98011 22.5199C9.46999 21.7071 9.04172 20.9144 8.00579 20.5288C7.89368 21.4929 7.79053 22.3865 7.67281 23.3944ZM8.88476 19.3146C9.3433 19.7115 9.80185 20.1072 10.2761 20.5176C10.396 19.9536 10.5082 19.4278 10.6337 18.8415C10.0014 19.0231 9.32985 18.7293 8.88476 19.3146ZM21.252 18.6587C21.5379 18.5959 21.7453 18.55 22.0772 18.4771C21.8978 18.1262 21.7487 17.8347 21.5995 17.5432C21.5491 17.5589 21.4986 17.5757 21.4482 17.5914C21.3865 17.9266 21.3249 18.263 21.252 18.6587Z" fill="#342B1E"/>
<path d="M2.54029 52.8041C3.70627 52.5272 4.80274 52.2694 5.89809 52.0048C6.99793 51.7402 8.1 51.4846 9.19311 51.1964C10.9813 50.7244 12.7628 50.2255 14.5499 49.7491C14.7427 49.6975 14.958 49.739 15.1542 49.6952C15.5455 49.6067 15.865 49.7334 15.9547 50.1C16.0578 50.5226 15.7865 50.8119 15.3874 50.9397C14.7898 51.1314 14.1844 51.2985 13.5835 51.4812C12.2359 51.8904 10.8995 52.3411 9.54066 52.7055C7.91053 53.1416 6.25686 53.488 4.62224 53.9073C3.95853 54.0778 3.30603 54.3076 2.66922 54.5621C1.6602 54.9657 1.03124 54.6708 0.966219 53.5878C0.909041 52.6349 0.998732 51.6673 1.08842 50.7132C1.24426 49.0315 1.43261 47.3532 1.64114 45.6771C1.7398 44.8867 1.96627 44.112 2.05148 43.3216C2.30149 41.0076 2.46518 38.6834 2.74994 36.3739C2.99659 34.3704 3.33966 32.3771 3.68497 30.3882C3.80381 29.702 4.04598 29.035 4.26796 28.3712C4.31281 28.239 4.52246 28.1616 4.65587 28.0596C4.74332 28.2221 4.91037 28.3881 4.90477 28.5484C4.87898 29.2939 4.83189 30.0406 4.74332 30.7806C4.59197 32.0553 4.37111 33.3211 4.24442 34.598C4.14127 35.634 4.1424 36.6811 4.08185 37.7215C3.98656 39.3404 3.93835 40.9661 3.76009 42.576C3.54147 44.5515 3.19167 46.5123 2.93381 48.4844C2.75331 49.8656 2.63223 51.2547 2.48984 52.6405C2.48424 52.7021 2.5302 52.7716 2.54029 52.8041Z" fill="#342B1E"/>
<path d="M32.2851 23.0874C32.4084 23.1984 32.71 23.3486 32.7111 23.5C32.7123 23.7321 32.5665 24.0695 32.377 24.1805C31.6741 24.5908 30.9498 24.9832 30.1942 25.2803C28.0573 26.1189 25.8969 26.897 23.7533 27.7188C22.6299 28.1493 21.5256 28.6292 20.4067 29.0742C20.0076 29.2334 19.2643 28.9733 19.2015 28.6796C19.1241 28.3231 19.5098 27.6683 19.8629 27.5372C21.992 26.7434 24.1165 25.9351 26.25 25.1537C27.5382 24.6817 28.841 24.2511 30.1359 23.7982C30.6561 23.6166 31.1696 23.4193 31.6898 23.2365C31.8456 23.1838 32.0116 23.1558 32.2851 23.0874Z" fill="#342B1E"/>
<path d="M41.2004 44.9788C40.9336 45.7815 40.6791 46.5708 40.41 47.3533C40.2777 47.7379 40.0714 48.1034 39.9907 48.4958C39.9358 48.7637 39.9615 49.1079 40.0894 49.3433C40.7699 50.6013 41.447 51.8659 42.2206 53.0655C42.7207 53.8402 43.3653 54.5275 43.9819 55.2215C45.0067 56.374 46.0684 57.4929 47.0987 58.6409C47.3005 58.8651 47.5606 59.1555 47.2366 59.4694C46.9103 59.7856 46.5841 59.6612 46.3072 59.3719C45.3845 58.4077 44.4158 57.4805 43.5604 56.4592C42.4527 55.1362 41.382 53.7752 40.4033 52.3558C39.8304 51.5251 39.4077 50.5744 39.04 49.6292C38.8673 49.1853 38.8561 48.5899 38.9962 48.1314C39.3135 47.0899 39.7676 46.0909 40.1712 45.0763C40.2194 44.9563 40.2676 44.8207 40.3584 44.7366C40.5255 44.5808 40.7228 44.4586 40.9078 44.3218C40.9975 44.5258 41.0883 44.7299 41.2004 44.9788Z" fill="#342B1E"/>
<path d="M15.4121 24.7533C15.4222 24.2319 15.9435 23.742 16.7473 23.5133C18.0456 23.1456 19.345 22.7812 20.6455 22.4202C22.6053 21.8776 24.5605 21.3204 26.5281 20.8114C27.3488 20.5995 28.1941 20.4817 29.0338 20.3528C29.1751 20.3315 29.4218 20.4391 29.4745 20.5535C29.5328 20.6791 29.4789 20.9728 29.3769 21.0367C29.035 21.2475 28.6639 21.4347 28.2793 21.5491C26.0113 22.2296 23.7354 22.8832 21.4639 23.5537C20.187 23.9304 18.9111 24.3093 17.6431 24.7152C17.1352 24.8777 16.6621 25.1457 16.1543 25.3071C15.7338 25.4417 15.4042 25.1636 15.4121 24.7533Z" fill="#342B1E"/>
<path d="M22.6815 32.0633C22.5391 31.9579 22.2487 31.8525 22.1927 31.6743C22.1265 31.4635 22.1927 31.1384 22.3272 30.9556C22.4931 30.7314 22.7678 30.5509 23.0324 30.4444C24.5616 29.8334 26.1021 29.2504 27.638 28.655C29.3354 27.9981 31.0295 27.3355 32.7291 26.6841C33.0217 26.572 33.33 26.443 33.6339 26.4352C33.8457 26.4296 34.0621 26.6146 34.2774 26.7143C34.1642 26.9206 34.1025 27.2334 33.931 27.3153C32.6753 27.914 31.3994 28.4701 30.1269 29.0329C28.684 29.6708 27.2456 30.3188 25.7904 30.9265C24.8856 31.3043 23.9528 31.6182 23.0324 31.959C22.9449 31.9916 22.853 32.0129 22.6815 32.0633Z" fill="#342B1E"/>
<path d="M30.9364 40.6389C30.7761 40.5223 30.5675 40.4483 30.544 40.3361C30.5137 40.187 30.5776 39.9482 30.6897 39.8529C31.3826 39.2621 32.0676 38.6511 32.8177 38.1387C34.1496 37.2295 35.4972 36.3348 36.8941 35.5321C37.9042 34.9525 38.9996 34.5197 40.0714 34.0555C40.2059 33.9972 40.4313 34.1497 40.6151 34.2047C40.5187 34.3571 40.4593 34.5758 40.3214 34.652C39.1218 35.3157 37.8841 35.9166 36.7046 36.6129C35.8593 37.1118 35.0756 37.7183 34.2819 38.3002C33.4119 38.937 32.5665 39.6085 31.6976 40.2476C31.479 40.4068 31.2122 40.4987 30.9364 40.6389Z" fill="#342B1E"/>
<path d="M44.1602 40.19C44.0671 40.301 43.9943 40.4434 43.8777 40.5174C42.0536 41.6598 40.2777 42.8953 38.3796 43.8987C36.7304 44.771 35.2057 45.7991 33.6854 46.8585C32.7728 47.4942 31.8075 48.0559 30.849 48.6221C30.6987 48.7106 30.4611 48.6501 30.2637 48.658C30.3646 48.4752 30.4196 48.2263 30.5732 48.1209C31.4476 47.5234 32.349 46.9662 33.2336 46.3832C33.7908 46.0166 34.311 45.5894 34.8862 45.2553C36.328 44.4189 37.8034 43.6386 39.2429 42.7978C39.9302 42.3964 40.549 41.8807 41.2329 41.4715C41.993 41.0163 42.7879 40.6183 43.5739 40.208C43.7241 40.1295 43.9057 40.1104 44.0728 40.0645C44.1019 40.1071 44.1311 40.1485 44.1602 40.19Z" fill="#342B1E"/>
<path d="M10.0586 33.693C9.43859 33.3399 8.70985 33.0753 8.17843 32.5932C6.70526 31.2546 5.69512 29.5975 5.20406 27.6501C5.16819 27.51 5.13455 27.3485 5.17043 27.2162C5.21191 27.0604 5.33075 26.9248 5.41596 26.7812C5.55386 26.8922 5.73884 26.9763 5.82405 27.1198C6.57297 28.3766 7.22995 29.6962 8.07193 30.8857C8.52711 31.5293 9.2906 31.9542 9.91619 32.4755C10.1001 32.6291 10.3164 32.7547 10.4667 32.9363C10.5541 33.0417 10.6034 33.2614 10.5508 33.3746C10.4947 33.4935 10.2974 33.5473 10.0586 33.693Z" fill="#342B1E"/>
<path d="M32.8098 32.0732C33.0239 32.2313 33.2392 32.3277 33.3401 32.4937C33.3838 32.5654 33.228 32.8379 33.0991 32.9231C31.9678 33.6641 30.8299 34.3962 29.6785 35.1048C29.0966 35.4636 28.4822 35.7707 27.8824 36.1026C27.5977 36.2607 27.3398 36.3167 27.0898 36.0208C26.8499 35.7371 26.9283 35.4703 27.1615 35.2898C27.6234 34.9299 28.1078 34.5936 28.6123 34.2976C29.4094 33.8289 30.2267 33.3917 31.044 32.9578C31.6124 32.654 32.1943 32.3793 32.8098 32.0732Z" fill="#342B1E"/>
<path d="M6.22544 25.9185C6.91605 27.0183 7.47999 28.0856 8.20648 29.0285C8.9341 29.9736 9.82316 30.7954 10.6719 31.7024C10.2077 31.9894 9.94424 31.6733 9.69423 31.4838C8.67512 30.7124 7.79839 29.7897 7.14589 28.6955C6.74228 28.0183 6.47657 27.2549 6.18507 26.516C6.11893 26.3501 6.2075 26.1247 6.22544 25.9185Z" fill="#342B1E"/>
<path d="M11.3233 30.5083C11.2324 30.6115 11.1809 30.7247 11.117 30.7326C10.9869 30.7471 10.812 30.7516 10.7234 30.6787C10.0093 30.0857 9.25028 29.5296 8.62356 28.8524C7.97218 28.1495 7.43964 27.3322 6.88805 26.5429C6.78714 26.3983 6.83984 26.1471 6.8219 25.9453C7.01025 26.0462 7.26363 26.1011 7.37574 26.257C8.33431 27.5956 9.43863 28.7919 10.7111 29.839C10.9342 30.0229 11.108 30.2695 11.3233 30.5083Z" fill="#342B1E"/>
</svg>
