<svg width="34" height="24" viewBox="0 0 34 24" fill="none" xmlns="http://www.w3.org/2000/svg">
<path d="M7.39114 1.10707C7.17347 1.2301 7.46685 1.46669 7.52363 1.66543C7.33436 1.89256 7.27758 1.51401 7.09776 1.40991C6.99366 1.58026 7.05991 1.93041 6.94634 1.99666C6.89903 1.94934 6.87063 1.94934 6.85171 1.87363C6.85171 2.20486 6.40691 2.21432 6.44477 2.62126C6.41638 2.60234 6.39745 2.58341 6.36906 2.56448C6.51101 2.68751 6.62458 2.82 6.70029 2.9241C6.62458 2.99035 6.69082 3.20802 6.52048 3.0566C6.57726 3.01874 6.52048 2.95249 6.49209 2.87679L6.47316 3.01874C6.18925 2.82947 6.51101 2.83893 6.35959 2.64966C6.25549 2.86732 6.25549 3.22694 6.07568 3.2648C5.83909 3.04713 6.29335 2.93357 5.93373 2.86732L6.20817 2.79161C5.73499 2.52663 6.35013 2.7159 5.86748 2.41306C5.54571 2.57395 5.67821 2.79161 5.3659 2.95249C5.43215 3.13231 5.56464 3.13231 5.63089 3.31212C5.52679 3.86101 4.79808 2.99981 4.85486 3.54871C4.9495 3.76638 5.22395 4.05975 4.90218 4.09761L4.69398 3.79477C4.44792 4.01243 4.95896 4.27742 4.56149 4.37205C4.48578 4.2301 4.62773 4.09761 4.56149 4.10707C4.20187 4.08814 4.61827 4.35313 4.51417 4.48562L4.24918 4.30581C4.06937 4.60865 4.02205 5.04398 3.86117 5.38467C3.79492 5.30896 3.74761 5.20486 3.61511 5.21432C3.47316 5.69697 3.0189 6.03767 2.63089 6.34051L2.78231 6.63388C2.76338 6.67174 2.64035 6.63388 2.61196 6.5771C2.43215 6.6812 2.76338 6.67174 2.8107 6.79477C2.78231 6.8894 2.6025 6.83262 2.56464 6.73798C2.61196 7.126 2.6025 7.7506 2.19556 7.92095L2.14824 7.82631C1.94003 8.00612 2.54571 8.31843 2.21448 8.42253L2.19556 8.36574C1.85486 8.82 1.87379 9.46354 1.34382 9.70959C1.69398 9.91779 0.993663 10.1733 1.51417 10.3815C1.15455 10.5897 1.0883 10.4762 0.775997 10.8547C0.719215 10.9683 1.05991 11.1197 1.07884 11.2806L0.794924 11.2049L1.04098 11.4793L0.68136 11.4982L0.719215 11.6497C0.747606 11.6023 0.870634 11.5645 0.955808 11.5929C1.03152 11.8295 0.634041 12.0566 0.492085 12.0377C0.52994 12.2269 0.586722 12.4068 0.634041 12.596C0.520476 12.5676 0.492085 12.473 0.435303 12.3878C0.68136 12.7191 0.123 12.3878 0.350129 12.6812C0.425839 12.6623 0.520476 12.7285 0.577259 12.7474C0.378521 12.8421 0.340666 13.1355 0.387984 13.3626L0.189246 13.2963C0.0946089 13.6844 0.19871 14.1386 0.189246 14.5834C0.283883 14.4225 0.634041 14.4793 0.662432 14.6023L0.350129 14.6497C0.539404 14.7348 0.473158 14.5172 0.700287 14.6875C0.662432 14.8484 0.350129 14.7916 0.246028 14.697L0.350129 14.8957C0.255492 14.9052 0.208174 14.8579 0.0946089 14.8484C0.283883 14.9241 -0.20823 15.208 0.123 15.3216L0.0283628 15.3405C0.0472903 15.7948 0.179782 15.9935 0.236565 16.3626C0.501549 16.3342 0.463694 16.4856 0.690823 16.5519C0.643505 16.8168 0.501549 17.167 0.60565 17.4793C0.794924 17.6686 0.842243 17.4888 1.02205 17.5456C0.794924 17.6213 0.899025 17.9336 0.690823 17.82C0.851707 18.1796 0.889562 18.2932 1.25865 18.6717C1.33436 18.5866 1.34382 18.5109 1.43846 18.5109C1.5047 18.5771 1.41953 18.7285 1.30597 18.7664L1.27757 18.7569C1.56149 18.9367 1.52363 19.2869 1.54256 19.637C1.55202 19.9872 1.59934 20.3279 1.94003 20.3657L1.90218 20.3563C2.06306 20.432 2.22395 20.5077 2.38483 20.5739C2.48893 20.7632 2.1577 20.5834 2.13877 20.8011C2.76338 20.943 2.61196 21.4635 3.11354 21.5676C2.85802 22.3437 4.02205 22.2869 4.16401 22.8831L4.23026 22.7222C4.41953 22.637 4.30597 22.8736 4.36275 22.9588C4.41953 22.8358 4.32489 22.7601 4.43846 22.7222C4.92111 22.8831 5.33751 23.1386 5.82016 23.3941C6.30281 23.6591 6.83278 23.8862 7.38168 23.9809C7.78862 24.0282 7.59934 23.1292 8.07253 23.4982L7.9495 23.8295C8.67821 23.4225 9.5394 23.6118 10.1356 23.025C10.1262 23.1102 10.1545 23.1954 10.0883 23.2238C10.3249 23.3752 10.6467 22.9967 10.552 22.8168C10.6656 22.779 10.6561 22.9493 10.7602 22.9967C10.9779 23.0345 10.9684 22.5519 11.1577 22.6938C11.1861 22.7127 11.1577 22.779 11.1388 22.8168C11.1672 22.6654 11.5741 22.5613 11.3375 22.4004C11.6498 22.3247 11.6971 21.9746 11.9621 21.9367C11.858 21.6244 12.4164 21.6812 12.1325 21.3594C12.4353 21.6528 12.7381 21.1702 12.653 20.8957C12.7287 21.0187 12.8517 20.8295 12.9653 20.9903C13.0883 20.8011 13.1072 20.5834 12.8896 20.5172C13.2019 20.4604 13.2019 20.2238 13.1829 20.0345C13.164 19.8358 13.1451 19.6844 13.4858 19.6749C13.4385 18.9935 13.3438 18.4446 13.2397 17.9336C13.6751 17.9525 13.2681 18.5014 13.7034 18.5203C13.5615 17.9714 13.1924 17.7159 13.2492 17.2427C13.2965 17.1102 13.4385 17.29 13.5142 17.3279C13.2965 16.8642 13.4101 16.3815 13.0694 16.0219C13.1072 16.0124 13.164 16.0408 13.2019 16.0787C13.164 16.003 13.2113 15.8705 13.0221 15.9367L13.0978 16.003C12.8612 16.2017 12.4448 15.861 12.2933 15.8989C12.8706 15.8515 12.3028 15.4825 13.0315 15.4541C12.9747 15.4162 12.8706 15.3784 12.7476 15.4351C12.7571 15.35 12.8139 15.2932 12.9842 15.3216C12.7855 15.0755 12.6246 15.2553 12.5299 15.0093C12.6151 14.9714 12.6719 15.0093 12.7855 14.9903C12.5678 14.9336 12.3501 14.8862 12.3312 14.6591C12.388 14.6497 12.4448 14.5929 12.4732 14.6497C12.2839 14.3184 11.7634 14.2995 11.735 13.8736C12.1514 13.779 11.7918 13.6938 12.0851 13.4951L11.8864 13.3626L11.7823 13.5235C11.6971 13.3531 11.3848 13.3531 11.4038 13.1544L11.6025 13.2017L11.3659 12.9367L11.3564 13.1733C11.1009 13.1071 10.9874 13.4194 10.94 13.1639C10.9968 13.1828 10.8454 13.0124 10.9779 12.8137C10.8359 12.7948 10.6845 12.7853 10.6845 12.6244C10.7602 12.5298 11.0252 12.4351 11.082 12.3784C10.7886 12.4635 10.7886 12.0661 10.4574 12.1418C10.5426 12.1323 10.694 12.0377 10.7224 11.9998L10.4763 12.0661C10.4952 11.9525 10.5236 11.9241 10.6561 11.8579C10.5615 11.6213 10.3249 12.1702 10.3249 11.8105C10.3533 11.82 10.3817 11.7916 10.4385 11.8105C10.3627 11.5077 10.0031 11.4131 9.95581 11.1197C10.2208 10.8642 10.1545 11.2711 10.3627 11.0345C10.1072 10.7411 9.58672 10.5803 9.51101 10.2206L9.50155 10.2963C9.0189 10.4667 9.61511 9.95565 9.34067 9.89887C9.38799 9.92726 9.62458 9.85155 9.5678 9.86101C9.5678 9.63388 9.31228 9.50139 9.123 9.17016L9.27442 9.22694C9.37852 9.10391 9.3312 8.90518 9.41638 8.78215C9.29335 8.72536 9.3312 8.64966 9.13246 8.66858C9.52994 8.5077 9.48262 8.31843 9.44477 8.07237C9.40691 7.83577 9.37852 7.57079 9.74761 7.50454C9.72868 7.55186 9.80439 7.66543 9.81385 7.62757L9.86117 7.23956C9.65297 7.17332 9.71922 7.2301 9.52994 7.22063C9.4353 7.126 9.38799 6.98404 9.4353 6.8894C9.49209 7.10707 9.74761 7.04082 9.88956 7.03136C9.82332 7.01243 9.76653 6.95565 9.70975 6.93672C10.1451 6.93672 9.3312 6.70959 9.69082 6.58656L9.78546 6.65281C9.776 6.53925 9.69082 6.37836 9.776 6.29319C10.0221 6.3689 9.82332 6.44461 10.0031 6.54871C10.0599 6.40675 9.72868 6.04713 10.0221 6.04713C10.0504 6.14177 10.0031 6.22694 10.041 6.31212C10.3722 6.32158 10.3154 6.27426 10.4101 6.19855L10.4006 6.20801L10.6467 6.0566L10.5426 6.07552C10.0694 5.57395 10.6372 5.67805 10.4101 5.23325C10.6183 5.66858 10.5899 5.39413 10.817 5.56448C10.9211 5.55502 11.0441 5.51716 11.1009 5.58341C10.9684 5.35628 11.3564 5.51716 11.1766 5.18593C11.2618 5.23325 11.2523 5.08183 11.4321 5.23325C11.4605 5.0629 11.2807 5.17647 11.1861 5.10076C11.0631 4.72221 11.8202 4.8547 11.6782 4.32473C11.7161 3.97458 11.5079 3.73798 11.5646 3.41622C11.7445 3.43514 11.7728 3.69067 11.7728 3.69067C11.9716 3.65281 12.0284 3.54871 12.0378 3.3689C12.0851 3.44461 12.1514 3.46354 12.2555 3.50139C12.3123 3.39729 12.0473 3.22694 12.2555 3.19855C12.3123 3.28373 12.4164 3.41622 12.4637 3.52978C12.4921 3.37836 12.4448 3.1607 12.4732 2.99981C12.6151 3.07552 12.5962 3.22694 12.6435 3.33104C12.6908 3.1607 12.8044 2.93357 12.653 2.72537L12.5205 2.74429C12.5489 2.69697 12.7003 2.86732 12.7098 2.93357C12.7665 3.17016 12.511 3.01874 12.4353 2.96196L12.4637 2.84839C11.9905 2.56448 12.2555 3.21748 12.1041 3.34997L11.858 3.0282L11.9716 3.39729C11.8675 3.3689 11.6782 3.24587 11.6971 3.13231C11.4511 3.12284 11.7161 3.32158 11.47 3.28373C11.4321 3.27426 11.4227 3.25533 11.4227 3.23641V3.42568C11.3754 3.34997 11.1861 3.27426 11.2902 3.23641C10.94 3.30265 11.2618 3.75691 10.959 3.65281V3.59603C10.8454 3.97458 11.1672 3.79477 11.2807 4.22063L10.5993 3.94619L10.817 4.14492C10.7886 4.17332 10.7224 4.22063 10.6372 4.13546C10.7224 4.36259 10.7508 4.19224 10.8549 4.36259C10.5331 4.36259 10.6751 4.84524 10.2681 4.61811C10.4101 4.79792 10.5047 4.57079 10.5236 4.81685C10.0788 4.58972 10.4669 5.05344 10.1924 5.0629C10.0031 4.88309 10.2019 4.81685 9.91795 4.84524C10.2303 5.15754 9.66243 5.07237 9.66243 5.24272C9.95581 5.42253 9.62458 5.58341 9.60565 5.84839C9.51101 5.78215 9.2271 6.15123 9.00944 6.29319L8.97158 6.25533C9.25549 6.45407 9.09461 6.62442 9.08515 6.80423C8.90534 6.70959 8.83909 6.64335 8.80123 6.52032L8.73499 6.66227C8.8107 6.74745 8.84855 6.81369 8.83909 6.92726L8.62142 6.77584C8.54571 6.97458 8.71606 7.28688 8.45108 7.48562C8.67821 7.58025 9.15139 7.5424 9.20817 7.8547C9.08515 7.81685 8.86748 7.7506 8.84855 7.66543C8.85802 7.69382 8.92426 7.78846 8.84855 7.80738L8.67821 7.62757C8.54571 7.71275 8.82963 7.7506 8.77284 7.83577C8.59303 7.76953 8.62142 7.86417 8.48893 7.79792C8.47947 7.76953 8.59303 7.74114 8.53625 7.67489C8.46054 7.76953 8.31858 7.87363 8.16716 7.88309C8.27127 7.90202 8.40376 7.9588 8.40376 8.04398C8.3659 8.27111 8.16716 8.06291 8.04414 8.17647C8.1577 8.26164 7.99682 8.39413 8.27127 8.44145C8.25234 8.51716 8.12931 8.5077 8.04414 8.52663C8.13877 8.66858 8.03467 9.13231 8.33751 8.99981L8.35644 8.97142C8.35644 8.98089 8.3659 8.98089 8.3659 8.99035C8.63089 9.35943 8.27127 9.82316 8.51732 10.1733L8.43215 10.2017C8.6025 10.3815 8.67821 10.6465 8.93373 10.6938C8.96212 10.7506 8.84855 10.902 8.73499 10.9304C8.87694 11.044 8.97158 11.0061 8.96212 11.29C8.73499 11.2238 8.86748 11.4131 8.77284 11.2049C8.8107 11.432 8.7066 11.555 9.04729 11.6118C8.80124 11.6686 8.87694 11.9052 8.99051 11.9525L9.05676 11.7348C9.14193 11.8105 9.17978 11.9052 9.20817 11.9998L8.9148 12.1134C8.82016 12.6812 9.87064 12.4068 9.50155 13.0124C9.74761 12.984 9.51101 12.738 9.776 12.6812C9.84224 12.861 9.5678 13.2774 9.59619 13.3247C9.58672 13.637 10.1167 13.2774 10.1545 13.5708C10.2303 13.4856 10.4669 13.2963 10.6656 13.4099C10.7318 13.5897 10.3817 13.8547 10.2492 13.7979C10.2208 13.7695 10.2397 13.7317 10.2681 13.7127C10.2019 13.6844 10.1167 13.637 10.0504 13.7695L10.1545 13.7317C10.1072 13.8736 10.2492 14.0818 10.0599 14.1197C10.2208 14.1859 10.2492 14.0724 10.2492 13.9588C10.2303 14.2427 10.429 14.2806 10.4574 14.5361C10.4952 14.4698 10.5899 14.3752 10.6088 14.4131C10.6561 14.7916 10.8738 14.4509 11.0252 14.6402C10.94 14.8389 10.6372 14.7821 10.8738 14.9336C10.8359 15.1134 10.6183 15.0944 10.5142 15.085C10.8075 15.1796 10.5615 15.5014 10.5615 15.615L10.4385 15.5582C10.5142 15.596 10.5331 15.6433 10.552 15.6907L10.7318 15.5487C10.7224 15.6244 10.7413 15.6717 10.6561 15.7096C10.817 15.7096 10.9779 15.5109 11.2145 15.5582C11.1388 15.6812 11.4321 15.7569 11.1577 15.8989C11.1577 15.615 10.8927 16.0314 10.7602 15.8421C10.8075 15.8705 10.8265 15.9178 10.8075 15.984C10.7792 16.003 10.7508 15.9935 10.7224 15.984C10.552 16.3058 11.082 15.9651 11.1577 16.2206C10.9874 16.2396 10.8738 16.3721 10.9211 16.4004C10.8927 16.3058 11.1766 16.268 11.328 16.3247C11.2429 16.5235 11.47 16.4762 11.4795 16.5708L11.5079 16.4572C11.6782 16.4478 11.6782 16.5424 11.7634 16.6465C11.6404 16.6844 11.6498 16.5613 11.6025 16.6181C11.9243 16.6844 11.3754 16.9777 11.593 17.1102C11.4984 17.2143 11.2807 17.167 11.2145 17.2522C11.4605 17.4131 11.0157 17.4793 11.205 17.6497C11.4227 17.5739 11.3659 17.5645 11.6025 17.697C11.5457 17.5834 11.4795 17.4793 11.4132 17.3752C11.5268 17.432 11.6498 17.4982 11.7634 17.5645C11.7539 17.4604 11.6025 17.3563 11.6309 17.29C11.8296 17.3752 11.7728 17.3752 11.9527 17.2995C11.6309 17.4793 12.1798 17.5834 11.9621 17.7727L11.4038 17.7916C11.1577 18.0187 11.6971 18.208 11.5173 18.5109L11.6214 18.4257C11.8391 18.4919 11.6309 18.6244 11.6971 18.738C11.5173 18.7001 11.4416 18.7474 11.3186 18.7569C11.4511 18.7853 11.2618 18.9556 11.612 19.0787L11.3375 19.1355C11.1672 19.3153 11.7445 19.5803 11.5646 19.7979C11.4132 19.6465 11.2523 19.6749 11.1861 19.4762C11.1482 19.5424 11.0915 19.5803 11.2145 19.6465C11.1009 19.6276 11.328 19.9588 11.1388 19.9304C11.1956 20.0061 11.347 20.1197 11.2902 20.1954C11.2523 20.1859 11.2145 20.1386 11.2145 20.1386C11.2997 20.1954 11.2239 20.3279 11.4416 20.3847C11.1104 20.3184 11.0347 20.4698 10.9211 20.6023C10.817 20.7443 10.7034 20.8957 10.4574 20.7632C10.3722 20.9336 10.2113 21.0944 10.0788 21.208C10.0599 21.1512 10.0315 21.1323 10.0694 21.1228C9.78546 21.085 10.2113 21.6528 9.8801 21.6244C9.62458 21.4257 9.92742 21.4068 9.80439 21.35C9.50155 20.8295 9.55833 21.5582 9.25549 21.3027L9.27442 21.2553C9.08515 21.1039 9.05676 21.5866 8.82963 21.6055C8.82963 21.6055 8.82963 21.5487 8.8107 21.5203C8.75392 21.861 8.47947 22.0314 8.2618 22.1449C8.29966 21.8989 8.34698 22.003 8.27127 21.7664C8.17663 21.8137 8.35644 22.1544 8.1577 22.249C8.07253 22.126 7.92111 22.0219 7.89272 21.7569L8.06306 21.7285C7.95896 21.3878 7.85486 21.7474 7.76022 21.7001L7.76969 21.5487C7.51417 21.596 7.49524 21.9746 7.20187 21.9273L7.22079 22.0408C7.01259 22.391 7.10723 21.8232 6.89903 22.0787L6.90849 21.7001C6.79493 21.7664 6.47316 21.9935 6.25549 21.9935C6.44477 21.7664 6.69082 21.6717 6.84224 21.5392C6.74761 21.5203 6.51101 21.5014 6.40691 21.6528C6.45423 21.6339 6.52994 21.5582 6.54887 21.6244C6.35959 21.8705 6.13246 21.9651 5.92426 21.8799C6.21764 21.2269 5.46054 21.4919 5.59303 20.9146C5.14824 20.962 5.06306 20.4509 4.7413 20.2238C4.48578 20.7443 4.6372 20.1575 4.26811 20.6023C4.16401 20.555 4.14508 20.5172 4.16401 20.4888C4.16401 20.3279 4.17347 20.1859 4.1924 20.025C4.26811 19.8547 4.34382 20.0061 4.43846 19.9115C4.32489 19.7222 4.55202 19.6749 4.58041 19.4762C4.44792 19.637 4.30597 19.6276 4.2965 19.4856L4.20186 19.7885C3.76653 19.7601 4.41007 19.2869 3.99366 19.249L4.1924 19.2112C4.01259 19.1544 3.88956 18.7758 3.40691 18.8799C3.44477 18.8232 3.5678 18.7096 3.63404 18.7474C3.51101 18.4162 2.79177 18.2364 2.95265 17.8389L3.09461 17.8105C3.02836 17.7632 2.80123 17.7916 2.90533 17.6591C2.96212 17.6402 3.04729 17.6402 3.04729 17.6023C2.99051 17.5834 2.75392 17.5077 2.80123 17.3941L2.98104 17.4225C3.04729 17.0345 2.44161 16.9967 2.28073 16.6938C2.68767 16.6086 2.76338 16.3058 2.8107 16.1544H2.86748C2.85802 15.738 2.44161 15.473 2.27127 15.0566C2.7066 14.8011 2.47 14.1859 2.77284 13.7979C2.68767 13.8547 2.45108 13.7506 2.41322 13.6749C2.50786 13.5897 2.16716 13.3626 2.53625 13.4288V13.4383C2.92426 13.4194 2.83909 13.2112 2.88641 13.0598L2.39429 12.9462C3.17032 12.6812 2.35644 11.8011 3.05675 11.7443C2.96212 11.6118 2.99997 11.4982 2.90533 11.3657L3.16086 11.4509C3.30281 11.2049 3.37852 11.0818 3.42584 10.7411L3.58672 10.8736C3.66243 10.7033 2.94319 10.3815 2.99051 10.2017L3.38798 10.2869C3.50155 9.95565 3.95581 9.77584 3.75707 9.32158C3.80439 9.34997 3.90849 9.40675 3.89903 9.46354C3.9842 9.30265 4.41007 8.99035 3.88956 8.81054C4.21133 8.96196 4.06937 8.5077 4.02205 8.27111L4.24918 8.41306C4.02205 8.11969 3.93688 8.07237 3.96527 7.83577C4.00313 7.79792 4.16401 7.89256 4.06937 7.92095C4.26811 7.82631 3.90849 7.68436 4.13562 7.56133L4.24918 7.71275C4.35328 7.56133 4.26811 7.53294 4.14508 7.34366C4.10723 7.19224 4.38168 7.07868 4.59934 7.18278C4.48578 7.08814 4.37221 6.89887 4.48578 6.84208C4.57095 6.87994 4.59934 6.93672 4.6088 6.97458C4.91164 6.81369 4.58988 6.42568 4.92111 6.39729C4.99682 6.44461 5.03467 6.45407 5.07253 6.45407C4.94004 6.64335 4.81701 6.79477 4.81701 6.77584C5.02521 6.90833 5.1577 6.77584 5.35644 7.07868C5.28073 6.86101 5.09145 6.41622 5.29966 6.33104C5.31858 6.34051 5.34698 6.34997 5.38483 6.3689L5.39429 6.39729C5.44161 6.37836 5.44161 6.33104 5.43215 6.28372C5.48893 6.25533 5.53625 6.24587 5.5741 6.19855C5.74445 6.30265 5.79177 6.09445 5.84855 6.0282C5.64035 5.86732 5.75392 5.80107 5.50786 5.75376C5.53625 5.75376 5.51732 5.79161 5.48893 5.84839C5.48893 5.86732 5.47947 5.87678 5.48893 5.89571L5.47 5.87678C5.44161 5.93357 5.39429 5.99981 5.34698 6.07552C5.28073 5.93357 5.23341 5.80107 5.42269 5.81054C5.30912 5.66858 5.20502 5.5077 5.1577 5.44145C5.53625 5.56448 5.84855 5.49824 6.04729 5.62126C6.11354 5.30896 6.40691 5.0629 6.17978 4.58026C6.18925 4.47615 6.35013 4.60865 6.42584 4.6465C6.42584 4.71275 6.37852 4.7506 6.41638 4.81685C6.4353 4.60865 6.71922 4.4383 6.51101 4.16385C6.776 4.13546 6.64351 4.47615 6.81385 4.23956L6.86117 4.34366C7.61827 4.40991 7.00313 3.04713 7.9495 3.2648C7.89272 3.25533 7.86433 3.24587 7.82647 3.20802C8.56464 3.08499 8.97158 2.18593 9.82332 2.39414C10.041 2.41306 9.9842 2.20486 10.0504 2.00612L10.1829 2.26164L10.2776 1.88309C10.5142 1.56133 10.94 2.42253 11.1956 1.91149L11.1104 1.73167C11.2523 1.74114 11.5173 1.55186 11.5268 1.76953C11.5363 1.73167 11.5457 1.56133 11.612 1.65596L11.6309 1.80738C11.7255 1.71275 11.8296 1.60865 11.9337 1.52347C12.1987 1.61811 11.9432 2.11022 12.2933 2.12915C12.4164 2.07237 12.6624 1.69382 12.6151 1.58972C12.5583 1.58026 12.4732 1.49508 12.4637 1.35313L12.5962 1.27742C12.6246 0.832621 12.7571 0.387826 12.3785 0.0755234L12.123 0.349971L12.0284 0.141769C12.1041 0.132306 12.1703 0.122842 12.246 0.122842C12.1135 -0.0758962 12.0378 0.113378 11.9621 0.236407C11.9337 0.122842 11.8959 0.0471322 11.8391 0.00927734C11.7634 0.160697 11.6877 0.293189 11.6214 0.444609C11.5741 0.274262 11.6971 0.0944508 11.5173 0.0187411C11.4227 0.226943 11.6687 0.387826 11.4984 0.539246C11.3564 0.349971 11.3659 0.179624 11.2523 0.368899C11.2145 0.255334 11.2334 0.179624 11.2902 0.122842C11.1766 0.274262 10.959 0.236407 10.9306 0.473C10.7602 0.24587 10.5236 0.624419 10.4479 0.217479C10.429 0.32158 10.2965 0.586564 10.1924 0.633883C10.2681 0.0944509 9.76653 0.72852 9.66243 0.198552C9.64351 0.681202 9.17032 0.577101 8.99997 0.917795C8.99997 0.87994 8.99997 0.80423 9.03783 0.813694C8.86748 0.842085 8.77284 0.72852 8.64982 0.700129C8.77284 1.05029 8.59303 1.22063 8.57411 1.48562C8.24288 1.24902 8.48893 1.04082 8.29019 0.756911C8.42269 1.0219 8.11985 1.18278 8.29019 1.37205C8.0536 1.23956 8.11985 1.3342 7.91164 1.08814C8.10092 1.51401 7.82647 1.2301 7.85486 1.53294C7.56149 1.4383 7.58988 1.18278 7.45739 1.41937C7.28704 1.36259 7.39114 1.10707 7.39114 1.10707ZM3.92742 5.43199C3.94634 5.39413 3.96527 5.35628 3.97474 5.33735C3.96527 5.35628 3.95581 5.38467 3.92742 5.43199ZM3.68136 5.80107C3.71922 5.76322 3.75707 5.70644 3.79492 5.64966C3.8801 5.68751 3.94634 5.75376 3.91795 5.79161C3.88956 5.73483 3.78546 5.79161 3.68136 5.80107ZM5.69713 6.15123C5.68767 6.21748 5.64035 6.20802 5.59303 6.17962C5.6025 6.15123 5.61196 6.12284 5.63089 6.07552L5.6025 6.04713C5.64035 6.08499 5.67821 6.11338 5.69713 6.15123Z" fill="#342B1D"/>
<path d="M26.8675 1.10723C26.6499 1.23026 26.9432 1.45739 27 1.65613C26.8107 1.89272 26.754 1.51417 26.5742 1.41007C26.4606 1.58042 26.5363 1.93057 26.4133 1.98736C26.3754 1.9495 26.3376 1.94004 26.3281 1.86433C26.3281 2.19556 25.8833 2.20502 25.9212 2.61196C25.8928 2.59303 25.8644 2.58357 25.8454 2.56464C25.9779 2.67821 26.0915 2.82016 26.1672 2.92426C26.0915 2.99051 26.1577 3.20818 25.9874 3.05676C26.0442 3.0189 25.9874 2.95266 25.959 2.87695L25.9401 3.0189C25.6562 2.82963 25.9874 2.83909 25.836 2.64982C25.7319 2.86748 25.7319 3.2271 25.5521 3.26496C25.3155 3.04729 25.7697 2.93373 25.4101 2.85802L25.6846 2.78231C25.2114 2.51732 25.8265 2.7066 25.3439 2.40376C25.0221 2.56464 25.1546 2.77284 24.8423 2.94319C24.9085 3.123 25.041 3.123 25.1073 3.30281C25.0032 3.85171 24.2745 2.99051 24.3312 3.53941C24.4259 3.75707 24.7003 4.05045 24.3786 4.0883L24.1609 3.78546C23.9148 4.00313 24.4353 4.26811 24.0284 4.36275C23.9622 4.23026 24.1041 4.09777 24.0379 4.09777C23.6783 4.07884 24.0947 4.34382 23.9906 4.47632L23.7161 4.2965C23.5363 4.59934 23.489 5.03467 23.3281 5.37537C23.2618 5.29966 23.2145 5.19556 23.082 5.20502C22.9401 5.68767 22.4858 6.0189 22.0883 6.3312L22.2398 6.62458C22.2208 6.66244 22.0978 6.62458 22.0694 6.5678C21.8896 6.6719 22.2208 6.66244 22.2682 6.78546C22.2398 6.8801 22.06 6.82332 22.0221 6.72868C22.0694 7.11669 22.06 7.7413 21.653 7.91165L21.6057 7.81701C21.3975 8.00628 22.0032 8.31859 21.6719 8.42269L21.6436 8.36591C21.3029 8.82016 21.3218 9.4637 20.7918 9.71922C21.142 9.92742 20.4417 10.1829 20.9622 10.3911C20.6025 10.5993 20.5363 10.4858 20.224 10.8643C20.1672 10.9779 20.5079 11.1293 20.5268 11.2902L20.2429 11.2145L20.489 11.4889L20.1294 11.5079L20.1672 11.6593C20.1956 11.612 20.3186 11.5741 20.4038 11.6025C20.4795 11.8391 20.082 12.0662 19.9401 12.0473C19.9779 12.2366 20.0347 12.4164 20.082 12.6057C19.9685 12.5773 19.9401 12.4826 19.8833 12.3975C20.1294 12.7287 19.571 12.3975 19.7981 12.6908C19.8738 12.6719 19.9685 12.7381 20.0253 12.7571C19.8265 12.8517 19.7887 13.1451 19.836 13.3722L19.6372 13.306C19.5426 13.694 19.6467 14.1482 19.6372 14.593C19.7319 14.4322 20.082 14.4889 20.1104 14.612L19.7981 14.6593C19.9874 14.7445 19.9212 14.5268 20.1483 14.6971C20.1104 14.858 19.7981 14.8012 19.694 14.7066L19.7981 14.9053C19.7035 14.9148 19.6562 14.8675 19.5426 14.858C19.7319 14.9337 19.2398 15.2176 19.571 15.3312L19.4764 15.3501C19.4953 15.8044 19.6278 16.0031 19.6846 16.3722C19.9495 16.3438 19.9117 16.4952 20.1388 16.5615C20.0915 16.8265 19.9495 17.1766 20.0536 17.4889C20.2429 17.6782 20.2902 17.4984 20.4701 17.5552C20.2429 17.6309 20.347 17.9432 20.1388 17.8296C20.2997 18.1893 20.3376 18.3028 20.7066 18.6814C20.7824 18.5962 20.7918 18.5205 20.8865 18.5205C20.9527 18.5867 20.8675 18.7381 20.754 18.776L20.7256 18.7665C21.0095 18.9463 20.9716 19.2965 20.9906 19.6467C21 19.9968 21.0473 20.3375 21.388 20.3754L21.3502 20.3659C21.5111 20.4416 21.6719 20.5173 21.8328 20.5836C21.9369 20.7728 21.6057 20.593 21.5868 20.8107C22.2114 20.9527 22.06 21.4732 22.5615 21.5773C22.306 22.3533 23.4701 22.2965 23.612 22.8927L23.6783 22.7318C23.8675 22.6467 23.754 22.8833 23.8107 22.9684C23.8675 22.8454 23.7729 22.7697 23.8865 22.7318C24.3691 22.8927 24.7855 23.1482 25.2682 23.4038C25.7508 23.6687 26.2808 23.8959 26.8297 23.9905C27.2366 24.0378 27.0473 23.1388 27.5205 23.5079L27.407 23.8296C28.1357 23.4227 28.9969 23.612 29.5931 23.0252C29.5836 23.1104 29.612 23.1956 29.5458 23.224C29.7824 23.3754 30.1041 22.9968 30.0095 22.817C30.123 22.7792 30.1136 22.9495 30.2177 22.9968C30.4353 23.0347 30.4259 22.552 30.6152 22.694C30.6435 22.7129 30.6152 22.7792 30.5962 22.817C30.6246 22.6656 31.0316 22.5615 30.795 22.4006C31.1073 22.3249 31.1546 21.9747 31.4196 21.9369C31.3155 21.6246 31.8738 21.6814 31.5899 21.3596C31.8928 21.653 32.1956 21.1703 32.1104 20.8959C32.1861 21.0189 32.3092 20.8296 32.4227 20.9905C32.5458 20.8012 32.5647 20.5836 32.347 20.5173C32.6593 20.4605 32.6593 20.224 32.6404 20.0347C32.6215 19.8359 32.6025 19.6845 32.9432 19.6751C32.8959 18.9937 32.8013 18.4448 32.6972 17.9337C33.1325 17.9527 32.7256 18.5016 33.1609 18.5205C33.0189 17.9716 32.6499 17.7161 32.7066 17.2429C32.754 17.1104 32.8959 17.2902 32.9716 17.3281C32.754 16.8643 32.8675 16.3817 32.5268 16.0221C32.5647 16.0126 32.6215 16.041 32.6593 16.0788C32.6215 16.0031 32.6688 15.8706 32.4795 15.9369L32.5552 16.0031C32.3186 16.2019 31.9022 15.8612 31.7508 15.899C32.3186 15.8517 31.7603 15.4826 32.489 15.4542C32.4322 15.4164 32.3281 15.3785 32.2051 15.4353C32.2145 15.3501 32.2713 15.2934 32.4417 15.3217C32.2429 15.0757 32.082 15.2555 31.9874 15.0094C32.0726 14.9716 32.1294 15.0094 32.2429 14.9905C32.0253 14.9337 31.8076 14.8864 31.7887 14.6593C31.8454 14.6498 31.9022 14.593 31.9306 14.6498C31.7413 14.3186 31.2208 14.2997 31.1924 13.8738C31.6089 13.7792 31.2492 13.694 31.5426 13.4952L31.3439 13.3628L31.2398 13.5236C31.1546 13.3533 30.8423 13.3533 30.8612 13.1545L31.06 13.2019L30.8234 12.9369L30.8139 13.1735C30.5584 13.1072 30.4448 13.4195 30.3975 13.164C30.4543 13.1829 30.3029 13.0126 30.4353 12.8139C30.2934 12.7949 30.142 12.7855 30.142 12.6246C30.2177 12.5299 30.4827 12.4353 30.5395 12.3785C30.2461 12.4637 30.2461 12.0662 29.9148 12.1419C30 12.1325 30.1514 12.0378 30.1798 12L29.9338 12.0662C29.9527 11.9527 29.9811 11.9243 30.1136 11.858C30.0189 11.6214 29.7824 12.1703 29.7824 11.8107C29.8107 11.8202 29.8391 11.7918 29.8959 11.8107C29.8202 11.5079 29.4606 11.4132 29.4133 11.1198C29.6783 10.8643 29.612 11.2713 29.8202 11.0347C29.5647 10.7413 29.0442 10.5804 28.9685 10.2208L28.959 10.2965C28.4764 10.4669 29.0726 9.95581 28.7981 9.89903C28.8454 9.92742 29.082 9.85171 29.0253 9.86117C29.0253 9.63404 28.7697 9.50155 28.5805 9.17032L28.713 9.19871C28.8171 9.07568 28.7697 8.87695 28.8549 8.75392C28.7319 8.69714 28.7697 8.62143 28.571 8.64035C28.9685 8.47947 28.9212 8.2902 28.8833 8.04414C28.8454 7.80755 28.8171 7.54256 29.1861 7.47632C29.1672 7.52363 29.2429 7.6372 29.2524 7.59934L29.3376 7.23026C29.1294 7.16401 29.1956 7.22079 29.0063 7.21133C28.9117 7.11669 28.8644 6.97474 28.9117 6.8801C28.9685 7.09777 29.224 7.03152 29.3659 7.02206C29.2997 7.00313 29.2429 6.94635 29.1861 6.92742C29.6215 6.92742 28.8076 6.70029 29.1672 6.57726L29.2618 6.64351C29.2524 6.52994 29.1672 6.36906 29.2524 6.28389C29.4984 6.3596 29.2997 6.43531 29.4795 6.53941C29.5363 6.39745 29.2051 6.03783 29.4984 6.03783C29.5268 6.13247 29.4795 6.21764 29.5174 6.30281C29.8486 6.31228 29.7918 6.26496 29.8865 6.18925L29.877 6.19871L30.123 6.04729L30.0189 6.06622C29.5458 5.56464 30.1136 5.66874 29.8865 5.22395C30.0947 5.65928 30.0663 5.38483 30.2934 5.55518C30.3975 5.54572 30.5205 5.50786 30.5773 5.57411C30.4448 5.34698 30.8328 5.50786 30.653 5.17663C30.7382 5.22395 30.7287 5.07253 30.9085 5.22395C30.9369 5.0536 30.7571 5.16717 30.6625 5.09146C30.5395 4.71291 31.2965 4.8454 31.1546 4.31543C31.1924 3.96527 30.9842 3.72868 31.041 3.40691C31.2208 3.42584 31.2492 3.68136 31.2492 3.68136C31.448 3.64351 31.5047 3.53941 31.5142 3.3596C31.5615 3.43531 31.6278 3.45423 31.7319 3.49209C31.7887 3.38799 31.5237 3.21764 31.7319 3.18925C31.7887 3.27442 31.8928 3.40691 31.9401 3.52048C31.9685 3.36906 31.9212 3.15139 31.9495 2.99051C32.0915 3.06622 32.0726 3.21764 32.1199 3.32174C32.1672 3.15139 32.2808 2.92426 32.1294 2.71606L31.9969 2.73499C32.0253 2.68767 32.1767 2.85802 32.1861 2.92426C32.2429 3.16086 31.9874 3.00944 31.9117 2.95266L31.9401 2.83909C31.4669 2.55518 31.7319 3.20818 31.5805 3.34067L31.3344 3.0189L31.448 3.38799C31.3439 3.3596 31.1546 3.23657 31.1735 3.123C30.9275 3.11354 31.1924 3.31228 30.9464 3.27442C30.9085 3.26496 30.8991 3.24603 30.8991 3.2271V3.41638C30.8518 3.34067 30.6625 3.26496 30.7666 3.2271C30.4164 3.29335 30.7382 3.74761 30.4353 3.64351V3.59619C30.3218 3.97474 30.6436 3.79493 30.7571 4.22079L30.0757 3.94635L30.2934 4.14508C30.265 4.17348 30.1988 4.22079 30.1136 4.13562C30.1988 4.36275 30.2271 4.1924 30.3312 4.36275C30.0095 4.36275 30.1514 4.8454 29.7445 4.61827C29.8959 4.79808 29.9811 4.57095 30 4.81701C29.5552 4.58988 29.9432 5.0536 29.6688 5.06307C29.4795 4.88326 29.6783 4.81701 29.3943 4.8454C29.7066 5.1577 29.1388 5.07253 29.1388 5.24288C29.4322 5.42269 29.101 5.58357 29.082 5.84855C28.9874 5.78231 28.7035 6.15139 28.4858 6.29335L28.4385 6.26496C28.7224 6.4637 28.5615 6.63404 28.5615 6.81385C28.3817 6.71922 28.3155 6.65297 28.2776 6.52994L28.2019 6.66244C28.2871 6.74761 28.3155 6.81385 28.306 6.92742L28.0883 6.776C28.0126 6.97474 28.183 7.28704 27.918 7.48578C28.1451 7.58042 28.6183 7.54256 28.6751 7.85486C28.5521 7.81701 28.3344 7.75076 28.3155 7.66559C28.3249 7.69398 28.3912 7.78862 28.3155 7.80755L28.1451 7.62774C28.0126 7.71291 28.2965 7.75076 28.2398 7.83594C28.06 7.76969 28.0883 7.86433 27.9559 7.79808C27.9464 7.76969 28.06 7.7413 28.0032 7.67505C27.9275 7.76969 27.7855 7.87379 27.6341 7.88326C27.7382 7.90218 27.8707 7.95897 27.8707 8.04414C27.8234 8.27127 27.6341 8.06307 27.5016 8.17663C27.6152 8.2618 27.4543 8.3943 27.7287 8.44162C27.7287 8.51732 27.5962 8.50786 27.5205 8.52679C27.6152 8.66875 27.5111 9.13247 27.8139 8.99998L27.8328 8.97158C27.8328 8.98105 27.8423 8.98105 27.8423 8.99051C28.1073 9.3596 27.7477 9.82332 27.9937 10.1735L27.9085 10.2019C28.0789 10.3817 28.1546 10.6467 28.4101 10.694C28.4385 10.7508 28.3249 10.9022 28.2114 10.9306C28.3533 11.0441 28.448 11.0063 28.4385 11.2902C28.2114 11.224 28.3439 11.4132 28.2492 11.205C28.2871 11.4322 28.183 11.5552 28.5237 11.612C28.2776 11.6687 28.3533 11.9053 28.4669 11.9527L28.5331 11.735C28.6183 11.8107 28.6562 11.9053 28.6846 12L28.3912 12.123C28.2965 12.6908 29.347 12.4164 28.9779 13.0221C29.224 12.9937 28.9874 12.7476 29.2524 12.6908C29.3186 12.8706 29.0442 13.287 29.0726 13.3344C29.0631 13.6467 29.5931 13.287 29.6309 13.5804C29.7066 13.4952 29.9432 13.306 30.142 13.4195C30.2082 13.5993 29.8581 13.8643 29.7256 13.8075C29.6972 13.7792 29.7161 13.7413 29.7445 13.7224C29.6783 13.694 29.5931 13.6467 29.5268 13.7792L29.6309 13.7413C29.5836 13.8833 29.7256 14.0915 29.5363 14.1293C29.6972 14.1956 29.7256 14.082 29.7256 13.9684C29.7066 14.2523 29.9054 14.2902 29.9338 14.5457C29.9716 14.4795 30.0663 14.3848 30.0852 14.4227C30.1325 14.8012 30.3502 14.4605 30.5016 14.6498C30.4164 14.8486 30.1136 14.7918 30.3502 14.9432C30.3123 15.123 30.0947 15.1041 29.9906 15.0946C30.2839 15.1892 30.0379 15.511 30.0379 15.6246L29.9148 15.5678C29.9906 15.6057 30.0095 15.653 30.0284 15.7003L30.2082 15.5583C30.1988 15.634 30.2177 15.6814 30.1325 15.7192C30.2934 15.7192 30.4543 15.5205 30.6909 15.5678C30.6152 15.6908 30.9085 15.7665 30.6341 15.9085C30.6341 15.6246 30.3691 16.041 30.2366 15.8517C30.2839 15.8801 30.3029 15.9274 30.2839 15.9937C30.2555 16.0126 30.2271 16.0031 30.1988 15.9937C30.0284 16.3154 30.5584 15.9747 30.6341 16.2303C30.4637 16.2492 30.3502 16.3817 30.3975 16.4101C30.3691 16.3154 30.653 16.2776 30.8044 16.3344C30.7193 16.5331 30.9464 16.4858 30.9559 16.5804L30.9842 16.4669C31.1546 16.4574 31.1546 16.552 31.2398 16.6561C31.1167 16.694 31.1262 16.571 31.0789 16.6277C31.4006 16.694 30.8518 16.9874 31.0694 17.1199C30.9748 17.224 30.7571 17.1766 30.6909 17.2618C30.9369 17.4227 30.4921 17.4889 30.6814 17.6593C30.8991 17.5836 30.8423 17.5741 31.0789 17.7066C31.0221 17.593 30.9559 17.4889 30.8896 17.3848C31.0032 17.4416 31.1262 17.5079 31.2398 17.5741C31.2303 17.47 31.0789 17.3659 31.1073 17.2997C31.306 17.3848 31.2492 17.3848 31.429 17.3091C31.1073 17.4889 31.6562 17.593 31.4385 17.7823L30.8801 17.8012C30.6341 18.0284 31.1735 18.2176 30.9937 18.5205L31.0978 18.4353C31.3155 18.5016 31.1073 18.634 31.1735 18.7476C30.9937 18.7098 30.918 18.7571 30.795 18.7665C30.9275 18.7949 30.7382 18.9653 31.0883 19.0883L30.8139 19.1451C30.6436 19.3249 31.2208 19.5899 31.041 19.8075C30.8896 19.6561 30.7287 19.6845 30.6625 19.4858C30.6246 19.552 30.5678 19.5899 30.6909 19.6561C30.5773 19.6372 30.8044 19.9684 30.6152 19.94C30.6719 20.0157 30.8234 20.1293 30.7666 20.205C30.7287 20.1956 30.6909 20.1482 30.6909 20.1482C30.776 20.205 30.7003 20.3375 30.9275 20.3943C30.5962 20.3281 30.5205 20.4795 30.407 20.612C30.3029 20.7539 30.1893 20.9053 29.9432 20.7728C29.8581 20.9432 29.6972 21.1041 29.5647 21.2176C29.5458 21.1609 29.5174 21.1419 29.5552 21.1325C29.2713 21.0946 29.6972 21.6624 29.3659 21.634C29.1104 21.4353 29.4133 21.4164 29.2902 21.3596C28.9874 20.8391 29.0442 21.5678 28.7413 21.3123L28.7603 21.265C28.571 21.1135 28.5426 21.5962 28.3155 21.6151C28.3155 21.6151 28.3155 21.5583 28.2965 21.5299C28.2398 21.8706 27.9653 22.041 27.7477 22.1546C27.7855 21.9085 27.8328 22.0126 27.7571 21.776C27.6625 21.8233 27.8423 22.164 27.6436 22.2587C27.5584 22.1356 27.407 22.0315 27.3786 21.7665L27.5489 21.7381C27.4259 21.4069 27.3218 21.7665 27.2271 21.7098L27.2366 21.5583C26.9811 21.6057 26.9622 21.9842 26.6688 21.9369L26.6877 22.0504C26.4795 22.4006 26.5742 21.8328 26.366 22.0883L26.3754 21.7098C26.2618 21.776 25.9401 22.0031 25.7224 22.0031C25.9117 21.776 26.1577 21.6814 26.3092 21.5489C26.2145 21.5299 25.9779 21.511 25.8738 21.6624C25.9212 21.6435 25.9969 21.5678 26.0158 21.634C25.8265 21.8801 25.5994 21.9747 25.3912 21.8896C25.6846 21.2366 24.9275 21.5016 25.06 20.9243C24.6152 20.9716 24.53 20.4605 24.2082 20.2334C23.9527 20.7539 24.1041 20.1672 23.735 20.612C23.6309 20.5646 23.612 20.5268 23.6309 20.4984C23.6309 20.3375 23.6404 20.1956 23.6593 20.0347C23.735 19.8643 23.8107 20.0157 23.9054 19.9211C23.7918 19.7318 24.0189 19.6845 24.0473 19.4858C23.9148 19.6467 23.7729 19.6372 23.7634 19.4952L23.6688 19.7981C23.2335 19.7697 23.877 19.2965 23.4606 19.2587L23.6593 19.2208C23.4795 19.164 23.3565 18.7855 22.8738 18.8896C22.9117 18.8328 23.0347 18.7192 23.101 18.7571C22.9779 18.4258 22.2587 18.246 22.4196 17.8486L22.5615 17.8202C22.4953 17.7728 22.2682 17.8012 22.3723 17.6687C22.429 17.6498 22.5142 17.6498 22.5142 17.612C22.4574 17.593 22.2208 17.5173 22.2682 17.4038L22.448 17.4322C22.5142 17.0441 21.9085 17.0063 21.7477 16.7034C22.1546 16.6183 22.2303 16.3154 22.2776 16.164H22.3344C22.3249 15.7476 21.9085 15.4826 21.7382 15.0662C22.1735 14.8107 21.9369 14.1956 22.2398 13.8075C22.1546 13.8643 21.918 13.7602 21.8801 13.6845C21.9748 13.5993 21.6341 13.3722 22.0032 13.4385L21.9937 13.4763C22.3817 13.4574 22.2966 13.2492 22.3439 13.0978L21.8518 12.9842C22.6278 12.7192 21.8139 11.8391 22.5142 11.7823C22.4196 11.6498 22.4574 11.5363 22.3628 11.4038L22.6183 11.4889C22.7603 11.2429 22.836 11.1198 22.8833 10.7792L23.0442 10.9116C23.1199 10.7413 22.4006 10.4195 22.448 10.2397L22.8454 10.3249C22.959 9.99367 23.4133 9.81386 23.2145 9.3596C23.2618 9.38799 23.366 9.44477 23.3565 9.50155C23.4322 9.35013 23.8581 9.04729 23.3376 8.86748C23.6593 9.00944 23.5174 8.56464 23.4606 8.31859L23.6877 8.46054C23.4606 8.16717 23.3754 8.11985 23.4038 7.88326C23.4606 7.85486 23.612 7.94004 23.5174 7.96843C23.7161 7.87379 23.3565 7.73184 23.5836 7.60881L23.6972 7.76023C23.8013 7.60881 23.7161 7.58042 23.5931 7.40061C23.5552 7.24919 23.8297 7.13562 24.0473 7.23972C23.9338 7.14508 23.8202 6.95581 23.9338 6.89903C24.0189 6.93688 24.0473 6.99367 24.0568 7.03152C24.3596 6.87064 24.0379 6.48262 24.3691 6.45423C24.4448 6.50155 24.4827 6.51102 24.5205 6.51102C24.388 6.70029 24.265 6.85171 24.265 6.83278C24.4732 6.96527 24.6057 6.83278 24.8044 7.13562C24.7287 6.91796 24.5395 6.47316 24.7477 6.38799C24.776 6.39745 24.795 6.39745 24.8328 6.41638L24.8423 6.44477C24.8896 6.42584 24.8896 6.37852 24.8801 6.3312C24.9464 6.30281 24.9937 6.29335 25.0316 6.2555C25.2019 6.3596 25.2492 6.15139 25.306 6.08515C25.0883 5.92426 25.2019 5.85802 24.9559 5.8107C24.9842 5.8107 24.9653 5.84855 24.9369 5.90534C24.9369 5.92426 24.9275 5.93373 24.9369 5.95266L24.918 5.93373C24.8801 5.99051 24.8423 6.05676 24.795 6.13247C24.7287 5.99051 24.6909 5.85802 24.8707 5.86748C24.7666 5.72553 24.6625 5.57411 24.6152 5.4984C24.9937 5.62143 25.306 5.55518 25.5048 5.67821C25.571 5.3659 25.8644 5.11985 25.6372 4.6372C25.6467 4.5331 25.8076 4.66559 25.8833 4.70344C25.8833 4.76969 25.836 4.80755 25.8738 4.87379C25.8928 4.66559 26.1767 4.49524 25.9685 4.22079C26.2335 4.1924 26.101 4.5331 26.2713 4.2965L26.3186 4.40061C27.0757 4.47632 26.4606 3.11354 27.407 3.3312C27.3502 3.32174 27.3218 3.31228 27.2745 3.27442C28.0126 3.15139 28.4196 2.25234 29.2713 2.46054C29.489 2.47947 29.4322 2.27127 29.4984 2.07253L29.6309 2.32805L29.7256 1.9495C29.9622 1.62773 30.388 2.48893 30.6436 1.97789L30.5584 1.79808C30.7003 1.80754 30.9653 1.61827 30.9748 1.83594C30.9842 1.79808 30.9937 1.62773 31.06 1.72237L31.0789 1.87379C31.1735 1.77915 31.2776 1.67505 31.3817 1.58988C31.6467 1.68452 31.3912 2.17663 31.7413 2.19556C31.8644 2.13878 32.1104 1.76023 32.0631 1.65613C32.0063 1.64666 31.9212 1.56149 31.9117 1.41953L32.0442 1.34382C32.0726 0.899027 32.2051 0.454233 31.8265 0.14193L31.571 0.416378L31.4764 0.208176C31.5521 0.198712 31.6183 0.189248 31.694 0.189248C31.5615 -0.00948991 31.4858 0.179785 31.4101 0.302813C31.3817 0.189248 31.3439 0.113538 31.2871 0.0756836C31.2114 0.227103 31.1357 0.359595 31.0694 0.511015C31.0221 0.340668 31.1451 0.160857 30.9653 0.0851473C30.8707 0.293349 31.1167 0.454233 30.9464 0.605652C30.8044 0.425841 30.8139 0.255494 30.6909 0.444769C30.653 0.331204 30.6719 0.255494 30.7287 0.198712C30.6152 0.350132 30.3975 0.312277 30.3691 0.54887C30.1988 0.32174 29.9622 0.700289 29.8865 0.293349C29.8675 0.39745 29.735 0.662434 29.6309 0.709753C29.7066 0.170321 29.2051 0.80439 29.101 0.274422C29.082 0.757072 28.6089 0.652971 28.4385 0.993665C28.4385 0.95581 28.4385 0.8801 28.4764 0.889564C28.3155 0.908491 28.2208 0.80439 28.0883 0.766535C28.2114 1.11669 28.0316 1.28704 28.0126 1.55202C27.6909 1.31543 27.9275 1.10723 27.7287 0.823318C27.8612 1.0883 27.5584 1.24919 27.7287 1.43846C27.5016 1.30597 27.5678 1.4006 27.3596 1.16401C27.5489 1.58988 27.2745 1.2965 27.3029 1.60881C27.0095 1.51417 27.0379 1.25865 26.9054 1.49524C26.7634 1.36275 26.8675 1.10723 26.8675 1.10723ZM23.4038 5.43215C23.4227 5.38483 23.4417 5.35644 23.4511 5.32805C23.4417 5.35644 23.4322 5.38483 23.4038 5.43215ZM23.1577 5.80124C23.1956 5.76338 23.2335 5.7066 23.2713 5.64982C23.3565 5.68767 23.4227 5.75392 23.3943 5.79177C23.3565 5.73499 23.2618 5.79177 23.1577 5.80124ZM25.1735 6.15139C25.1641 6.2271 25.1167 6.20818 25.06 6.17979C25.0694 6.15139 25.0883 6.123 25.0978 6.07568L25.0789 6.04729C25.1167 6.08515 25.1546 6.11354 25.1735 6.15139Z" fill="#342B1D"/>
</svg>
