<svg width="24" height="24" viewBox="0 0 24 24" fill="none" xmlns="http://www.w3.org/2000/svg">
<path d="M4.98304 7.19729C6.19144 7.19729 7.17104 6.21769 7.17104 5.00929C7.17104 3.80089 6.19144 2.82129 4.98304 2.82129C3.77464 2.82129 2.79504 3.80089 2.79504 5.00929C2.79504 6.21769 3.77464 7.19729 4.98304 7.19729Z" fill="#FFC875"/>
<path d="M9.23697 8.85469V20.9937H13.006V14.9907C13.006 13.4067 13.304 11.8727 15.268 11.8727C17.205 11.8727 17.229 13.6837 17.229 15.0907V20.9947H21V14.3377C21 11.0677 20.296 8.55469 16.474 8.55469C14.639 8.55469 13.409 9.56169 12.906 10.5147H12.855V8.85469H9.23697ZM3.09497 8.85469H6.86997V20.9937H3.09497V8.85469Z" fill="#FFC875"/>
</svg>
