<svg width="101" height="40" viewBox="0 0 101 40" fill="none" xmlns="http://www.w3.org/2000/svg">
<path d="M46.2671 31.8946C45.1318 31.8946 44.2402 31.0054 44.2402 29.8677C44.2402 28.7324 45.1294 27.8408 46.2671 27.8408C47.4049 27.8408 48.294 28.73 48.294 29.8677C48.2916 31.0054 47.4025 31.8946 46.2671 31.8946Z" fill="#FFC875"/>
<path d="M10.2396 31.6796V17.9742H8.10516V16.552H10.2396V13.6599C10.2396 10.0268 11.8291 8.10742 14.8336 8.10742C17.2525 8.10742 18.3304 9.37184 18.3759 9.42681L18.4404 9.5033L17.8452 10.4546L17.7257 10.3709C17.7162 10.3638 16.8174 9.7471 15.7323 9.7471C14.3053 9.7471 13.55 10.8538 13.55 12.95V16.5544H17.9743V17.9766H13.55V31.682H10.2396V31.6796Z" fill="#FFC875"/>
<path d="M24.0215 31.8948C22.4129 31.8948 21.029 31.5363 20.0179 30.8575C18.8826 30.095 18.2827 28.9501 18.2827 27.547C18.2827 24.6238 20.8928 23.0152 25.6301 23.0152C26.5862 23.0152 27.5925 23.0917 28.5533 23.2399V21.9492C28.5533 19.0881 27.5256 17.7568 25.3194 17.7568C22.7069 17.7568 21.7771 19.5399 21.7771 21.2058V21.3445H18.8085V21.2058C18.8085 18.2181 21.3158 16.3633 25.3505 16.3633C29.4688 16.3633 31.8327 18.3758 31.8327 21.8846V31.6773H29.4855L29.0529 29.8153C27.9582 31.1969 26.2659 31.8948 24.0215 31.8948ZM26.4046 24.3776C24.1386 24.3776 21.4401 24.9226 21.4401 27.5183C21.4401 28.8879 22.3221 30.3483 24.7959 30.3483C27.0236 30.3483 28.2187 29.0433 28.5557 26.242V24.5473C27.9438 24.4637 27.1694 24.3776 26.4046 24.3776Z" fill="#FFC875"/>
<path d="M35.4228 31.6795V16.5495H37.9182L38.3508 19.2218C39.7586 17.3813 42.046 16.332 44.2856 16.332V19.1931C44.2833 19.1907 38.7021 18.5334 38.7021 23.4763V31.6795H35.4228Z" fill="#FFC875"/>
<path d="M52.3454 29.2396C52.3741 28.7257 52.4123 28.2142 52.4291 27.7003C52.5079 25.2886 52.7446 22.8889 53.0433 20.4939C53.1485 19.6454 53.3206 18.8016 53.4807 17.9603C53.5692 17.4966 53.8297 17.1572 54.3173 17.0807C54.836 16.997 55.2758 17.1739 55.5817 17.6065C55.847 17.977 55.7562 18.3977 55.6487 18.7897C55.4885 19.3705 55.2232 19.9298 55.1133 20.5178C54.9316 21.4882 54.8216 22.4706 54.7117 23.453C54.5707 24.7198 54.432 25.989 54.3436 27.2605C54.2552 28.5082 54.2289 29.7583 54.1763 31.0084C54.1739 31.0371 54.1811 31.0657 54.236 31.1088C54.4081 30.7454 54.6017 30.3893 54.7499 30.014C55.412 28.3361 56.0622 26.6534 56.7123 24.9707C57.329 23.3789 57.9361 21.7846 58.7464 20.2764C58.9639 19.87 59.2435 19.49 59.5399 19.1362C59.9104 18.6941 60.4243 18.5985 60.9692 18.7012C61.3636 18.7753 61.6194 19.012 61.7222 19.4159C62.0377 20.6612 62.1141 21.9304 62.1643 23.2068C62.2098 24.3588 62.2647 25.5157 62.5659 26.6319C62.7117 27.1793 62.9459 27.7075 63.1921 28.219C63.3929 28.6373 63.5746 28.6564 63.9426 28.3648C64.729 27.7386 65.3792 26.9857 65.9934 26.1969C66.6149 25.3962 67.2363 24.5955 67.8889 23.8234C68.1327 23.5342 68.441 23.2856 68.7613 23.0825C69.5907 22.559 70.6376 22.6785 71.3236 23.386C71.7132 23.79 72.0406 24.2537 72.3968 24.6887C72.6764 25.0281 72.9394 25.3866 73.2525 25.695C73.7903 26.2256 74.4261 26.3929 75.1646 26.1204C75.7024 25.922 76.1757 25.6233 76.6059 25.2576C78.095 23.9907 79.5817 22.7239 81.0589 21.4476C81.1569 21.3639 81.2071 21.2014 81.2405 21.0651C81.5632 19.7529 81.9815 18.4742 82.5862 17.2647C82.9854 16.4664 83.4395 15.6968 84.0992 15.0777C84.3048 14.8841 84.5462 14.7192 84.7948 14.5805C85.3947 14.2483 86.4177 14.4538 86.836 14.9916C86.9412 15.1255 87.0033 15.3119 87.032 15.484C87.1491 16.1724 87.0009 16.8345 86.793 17.4846C86.3795 18.7801 85.7341 19.9441 84.7828 20.9241C84.2283 21.4954 83.5662 21.8778 82.7774 22.0332C82.7105 22.0475 82.6221 22.1455 82.6101 22.2148C82.3854 23.6083 82.2779 25.009 82.3974 26.4168C82.4476 27.0072 82.6005 27.588 82.7057 28.1736C82.7153 28.2214 82.7344 28.2668 82.7511 28.3122C83.1049 29.2205 83.7239 29.4858 84.6203 29.1058C85.4568 28.752 86.1237 28.1569 86.781 27.5569C88.5522 25.9388 90.0651 24.0983 91.4443 22.1407C91.614 21.8993 91.7813 21.6579 91.9606 21.4237C92.0347 21.3281 92.1183 21.2277 92.2187 21.1655C92.2976 21.1177 92.4123 21.1273 92.5103 21.1106C92.5175 21.2086 92.5509 21.3137 92.527 21.4045C92.4984 21.5217 92.441 21.634 92.3717 21.7344C91.1336 23.5509 89.8954 25.3699 88.4016 26.9952C87.5746 27.8939 86.6806 28.7186 85.6361 29.3687C85.0959 29.7057 84.5055 29.9256 83.8674 29.971C82.6938 30.0547 81.709 29.4237 81.2381 28.3098C80.8366 27.3585 80.7123 26.3594 80.7195 25.3364C80.7242 24.3875 80.7458 23.4386 80.9418 22.5064C80.9489 22.4682 80.9489 22.4276 80.9561 22.32C80.8581 22.4132 80.7983 22.4682 80.741 22.5256C79.4861 23.7708 78.2074 24.9875 76.7732 26.0272C76.0729 26.5339 75.3367 26.9737 74.4619 27.0908C73.7377 27.1888 73.0613 26.9928 72.447 26.6224C71.7825 26.2208 71.2423 25.6758 70.7858 25.0448C70.5611 24.7341 70.3149 24.4377 70.0496 24.1581C69.6433 23.7278 69.3971 23.7111 69.0123 24.1509C68.355 24.9014 67.7335 25.6782 67.1049 26.4527C66.4715 27.2342 65.8405 28.0206 65.0565 28.6588C64.3322 29.2492 63.5268 29.4858 62.6161 29.0986C62.0831 28.8739 61.7293 28.4724 61.4784 27.9656C61.0505 27.1052 60.8139 26.1873 60.7422 25.2384C60.6346 23.8378 60.5725 22.4323 60.4912 21.0293C60.4745 20.7329 60.4458 20.4365 60.4243 20.1377C60.4028 20.133 60.3789 20.1258 60.3573 20.121C60.1422 20.5273 59.8889 20.9217 59.7144 21.3448C59.0427 22.9916 58.3735 24.6409 57.7496 26.3068C56.9848 28.3481 56.2629 30.4037 55.3355 32.3803C55.2328 32.6002 55.0989 32.8106 54.9459 32.9994C54.4536 33.6161 53.8369 33.7045 53.0147 33.4751C52.7493 33.401 52.594 33.1787 52.5462 32.9205C52.4769 32.5524 52.4434 32.1772 52.398 31.8043C52.3765 31.6346 52.3645 31.4673 52.3478 31.2976C52.3454 30.614 52.3454 29.928 52.3454 29.2396ZM82.7416 21.3209C84.1757 20.5919 85.9253 16.8297 85.507 15.3645C84.0132 17.0926 83.265 19.1219 82.7416 21.3209Z" fill="#FFC875"/>
</svg>
