<svg width="162" height="64" viewBox="0 0 162 64" fill="none" xmlns="http://www.w3.org/2000/svg">
<path d="M74.0273 51.0317C72.2108 51.0317 70.7843 49.6091 70.7843 47.7887C70.7843 45.9722 72.207 44.5457 74.0273 44.5457C75.8477 44.5457 77.2704 45.9683 77.2704 47.7887C77.2665 49.6091 75.8439 51.0317 74.0273 51.0317Z" fill="#342B1D"/>
<path d="M16.3834 50.6875V28.7589H12.9683V26.4834H16.3834V21.856C16.3834 16.043 18.9266 12.9721 23.7337 12.9721C27.6039 12.9721 29.3287 14.9952 29.4014 15.0831L29.5046 15.2055L28.5524 16.7276L28.3612 16.5937C28.3459 16.5823 26.9079 15.5956 25.1717 15.5956C22.8885 15.5956 21.6801 17.3663 21.6801 20.7202V26.4873H28.7589V28.7627H21.6801V50.6914H16.3834V50.6875Z" fill="#342B1D"/>
<path d="M38.4344 51.0317C35.8606 51.0317 33.6463 50.4581 32.0287 49.372C30.2121 48.152 29.2522 46.3202 29.2522 44.0753C29.2522 39.3982 33.4284 36.8244 41.0082 36.8244C42.5379 36.8244 44.1479 36.9468 45.6853 37.1839V35.1187C45.6853 30.541 44.0408 28.4109 40.511 28.4109C36.331 28.4109 34.8434 31.2638 34.8434 33.9294V34.1512H30.0935V33.9294C30.0935 29.149 34.1053 26.1813 40.5607 26.1813C47.15 26.1813 50.9323 29.4014 50.9323 35.0155V50.6837H47.1768L46.4846 47.7046C44.733 49.915 42.0254 51.0317 38.4344 51.0317ZM42.2472 39.0042C38.6218 39.0042 34.3041 39.8762 34.3041 44.0294C34.3041 46.2207 35.7153 48.5574 39.6735 48.5574C43.2377 48.5574 45.1499 46.4693 45.6891 41.9872V39.2758C44.7101 39.1419 43.471 39.0042 42.2472 39.0042Z" fill="#342B1D"/>
<path d="M56.6764 50.6875V26.4796H60.669L61.3612 30.7552C63.6137 27.8105 67.2736 26.1316 70.857 26.1316V30.7093C70.8531 30.7055 61.9234 29.6538 61.9234 37.5625V50.6875H56.6764Z" fill="#342B1D"/>
<path d="M83.7526 46.7829C83.7985 45.9607 83.8596 45.1423 83.8864 44.32C84.0126 40.4613 84.3912 36.6217 84.8693 32.7897C85.0375 31.4321 85.3129 30.0821 85.5691 28.7359C85.7106 27.994 86.1275 27.451 86.9076 27.3286C87.7375 27.1947 88.4412 27.4777 88.9307 28.1699C89.3552 28.7627 89.2099 29.4358 89.0378 30.063C88.7815 30.9923 88.357 31.8872 88.1811 32.828C87.8905 34.3806 87.7146 35.9524 87.5386 37.5242C87.313 39.5511 87.0912 41.5818 86.9497 43.6164C86.8082 45.6127 86.7661 47.6128 86.682 49.6129C86.6782 49.6588 86.6896 49.7047 86.7776 49.7735C87.053 49.1922 87.3627 48.6224 87.5998 48.022C88.6592 45.3373 89.6994 42.645 90.7396 39.9527C91.7263 37.4057 92.6976 34.8548 93.9941 32.4417C94.3421 31.7916 94.7896 31.1835 95.2638 30.6175C95.8565 29.91 96.6788 29.757 97.5507 29.9215C98.1817 30.04 98.5909 30.4186 98.7554 31.0649C99.2602 33.0574 99.3826 35.0881 99.4629 37.1303C99.5355 38.9736 99.6235 40.8246 100.105 42.6106C100.339 43.4863 100.713 44.3315 101.107 45.1499C101.429 45.8192 101.719 45.8498 102.308 45.3832C103.566 44.3812 104.607 43.1766 105.589 41.9145C106.584 40.6334 107.578 39.3522 108.622 38.117C109.012 37.6543 109.506 37.2565 110.018 36.9315C111.345 36.0939 113.02 36.2851 114.118 37.4171C114.741 38.0635 115.265 38.8054 115.835 39.5014C116.282 40.0445 116.703 40.6181 117.204 41.1114C118.064 41.9604 119.082 42.2281 120.263 41.7922C121.124 41.4747 121.881 40.9967 122.569 40.4116C124.952 38.3847 127.331 36.3578 129.694 34.3156C129.851 34.1818 129.931 33.9217 129.985 33.7037C130.501 31.6042 131.17 29.5582 132.138 27.6231C132.777 26.3457 133.503 25.1143 134.559 24.1238C134.888 23.814 135.274 23.5502 135.672 23.3283C136.631 22.7968 138.268 23.1257 138.938 23.9861C139.106 24.2003 139.205 24.4986 139.251 24.7739C139.438 25.8753 139.201 26.9347 138.869 27.9749C138.207 30.0477 137.174 31.9101 135.652 33.4781C134.765 34.3921 133.706 35.004 132.444 35.2526C132.337 35.2755 132.195 35.4323 132.176 35.5432C131.817 37.7728 131.645 40.0139 131.836 42.2664C131.916 43.211 132.161 44.1403 132.329 45.0773C132.344 45.1537 132.375 45.2264 132.402 45.2991C132.968 46.7523 133.958 47.1768 135.392 46.5687C136.731 46.0027 137.798 45.0505 138.85 44.0906C141.683 41.5015 144.104 38.5568 146.311 35.4247C146.582 35.0384 146.85 34.6522 147.137 34.2774C147.255 34.1244 147.389 33.9638 147.55 33.8644C147.676 33.7879 147.86 33.8032 148.016 33.7764C148.028 33.9332 148.081 34.1015 148.043 34.2468C147.997 34.4342 147.906 34.6139 147.795 34.7745C145.814 37.681 143.833 40.5913 141.442 43.1919C140.119 44.6298 138.689 45.9492 137.018 46.9894C136.153 47.5286 135.209 47.8805 134.188 47.9531C132.31 48.087 130.734 47.0774 129.981 45.2952C129.338 43.7732 129.14 42.1746 129.151 40.5378C129.159 39.0195 129.193 37.5013 129.507 36.0098C129.518 35.9486 129.518 35.8836 129.53 35.7115C129.373 35.8606 129.277 35.9486 129.185 36.0404C127.178 38.0329 125.132 39.9794 122.837 41.643C121.717 42.4538 120.539 43.1574 119.139 43.3448C117.98 43.5016 116.898 43.188 115.915 42.5953C114.852 41.9528 113.988 41.0808 113.257 40.0712C112.898 39.5741 112.504 39.0998 112.079 38.6524C111.429 37.964 111.035 37.9373 110.42 38.6409C109.368 39.8418 108.374 41.0847 107.368 42.3237C106.354 43.5743 105.345 44.8325 104.09 45.8536C102.932 46.7982 101.643 47.1768 100.186 46.5573C99.3328 46.1978 98.7668 45.5553 98.3653 44.7445C97.6807 43.3678 97.3021 41.8992 97.1874 40.381C97.0153 38.1399 96.9159 35.8912 96.7858 33.6464C96.7591 33.1721 96.7132 32.6979 96.6788 32.2199C96.6443 32.2122 96.6061 32.2008 96.5717 32.1931C96.2275 32.8433 95.8221 33.4743 95.5429 34.1512C94.4683 36.7861 93.3975 39.4249 92.3994 42.0905C91.1756 45.3564 90.0206 48.6453 88.5368 51.8081C88.3723 52.1599 88.1582 52.4964 87.9134 52.7986C87.1256 53.7852 86.1389 53.9267 84.8234 53.5596C84.3989 53.441 84.1503 53.0854 84.0738 52.6724C83.9629 52.0834 83.9094 51.483 83.8367 50.8864C83.8023 50.6149 83.7832 50.3472 83.7564 50.0756C83.7526 48.9819 83.7526 47.8843 83.7526 46.7829ZM132.386 34.1129C134.681 32.9465 137.48 26.927 136.811 24.5827C134.421 27.3477 133.224 30.5946 132.386 34.1129Z" fill="#342B1D"/>
</svg>
